<svg xmlns="http://www.w3.org/2000/svg" width="16" height="18" viewBox="0 0 16 18" fill="none">
    <path d="M2 15.6864H5.34625V10.6479C5.34625 10.3919 5.43283 10.1772 5.606 10.0039C5.77933 9.83073 5.994 9.74414 6.25 9.74414H9.75C10.006 9.74414 10.2207 9.83073 10.394 10.0039C10.5672 10.1772 10.6538 10.3919 10.6538 10.6479V15.6864H14V6.84014C14 6.78898 13.9888 6.74256 13.9663 6.70089C13.9439 6.65922 13.9135 6.62231 13.875 6.59014L8.18275 2.31139C8.13142 2.26656 8.0705 2.24414 8 2.24414C7.9295 2.24414 7.86858 2.26656 7.81725 2.31139L2.125 6.59014C2.0865 6.62231 2.05608 6.65922 2.03375 6.70089C2.01125 6.74256 2 6.78898 2 6.84014V15.6864ZM0.5 15.6864V6.84014C0.5 6.55398 0.564 6.28289 0.692 6.02689C0.820166 5.77072 0.997167 5.55981 1.223 5.39414L6.9155 1.10564C7.23133 0.864641 7.59233 0.744141 7.9985 0.744141C8.40467 0.744141 8.76667 0.864641 9.0845 1.10564L14.777 5.39414C15.0028 5.55981 15.1798 5.77072 15.308 6.02689C15.436 6.28289 15.5 6.55398 15.5 6.84014V15.6864C15.5 16.0954 15.3523 16.4476 15.0568 16.7431C14.7613 17.0386 14.409 17.1864 14 17.1864H10.0577C9.80158 17.1864 9.58692 17.0997 9.41375 16.9264C9.24042 16.7532 9.15375 16.5386 9.15375 16.2824V11.2441H6.84625V16.2824C6.84625 16.5386 6.75958 16.7532 6.58625 16.9264C6.41308 17.0997 6.19842 17.1864 5.94225 17.1864H2C1.591 17.1864 1.23875 17.0386 0.94325 16.7431C0.64775 16.4476 0.5 16.0954 0.5 15.6864Z" fill="#111827" fill-opacity="0.6"/>
</svg>