<svg width="24" height="24" viewBox="0 0 24 24" fill="none" xmlns="http://www.w3.org/2000/svg">
<path fill-rule="evenodd" clip-rule="evenodd" d="M9.5 5.9999C9.93043 5.9999 10.3126 6.27533 10.4487 6.68367L11.9156 11.0843L16.3162 12.5512C16.7246 12.6873 17 13.0695 17 13.4999C17 13.9303 16.7246 14.3125 16.3162 14.4486L11.9156 15.9155L10.4487 20.3161C10.3126 20.7245 9.93043 20.9999 9.5 20.9999C9.06957 20.9999 8.68743 20.7245 8.55132 20.3161L7.08443 15.9155L2.68377 14.4486C2.27543 14.3125 2 13.9303 2 13.4999C2 13.0695 2.27543 12.6873 2.68377 12.5512L7.08443 11.0843L8.55132 6.68367C8.68743 6.27533 9.06957 5.9999 9.5 5.9999ZM9.5 10.1622L8.82368 12.1911C8.72415 12.4897 8.48983 12.7241 8.19123 12.8236L6.16228 13.4999L8.19123 14.1762C8.48983 14.2758 8.72415 14.5101 8.82368 14.8087L9.5 16.8376L10.1763 14.8087C10.2759 14.5101 10.5102 14.2758 10.8088 14.1762L12.8377 13.4999L10.8088 12.8236C10.5102 12.7241 10.2759 12.4897 10.1763 12.1911L9.5 10.1622Z" fill="url(#paint0_linear_16_7041)"/>
<path fill-rule="evenodd" clip-rule="evenodd" d="M17.5 2.3999C17.7583 2.3999 17.9875 2.56516 18.0692 2.81017L18.8493 5.15056L21.1897 5.93069C21.4347 6.01236 21.6 6.24164 21.6 6.4999C21.6 6.75816 21.4347 6.98744 21.1897 7.06911L18.8493 7.84924L18.0692 10.1896C17.9875 10.4346 17.7583 10.5999 17.5 10.5999C17.2417 10.5999 17.0125 10.4346 16.9308 10.1896L16.1507 7.84924L13.8103 7.06911C13.5653 6.98744 13.4 6.75816 13.4 6.4999C13.4 6.24164 13.5653 6.01236 13.8103 5.93069L16.1507 5.15056L16.9308 2.81017C17.0125 2.56516 17.2417 2.3999 17.5 2.3999Z" fill="url(#paint1_linear_16_7041)"/>
<defs>
<linearGradient id="paint0_linear_16_7041" x1="2.88792" y1="5.30615" x2="18.8751" y2="19.7034" gradientUnits="userSpaceOnUse">
<stop stop-color="#FF9951"/>
<stop offset="0.336538" stop-color="#C659FC"/>
<stop offset="0.870192" stop-color="#5386FA"/>
</linearGradient>
<linearGradient id="paint1_linear_16_7041" x1="2.88792" y1="5.30615" x2="18.8751" y2="19.7034" gradientUnits="userSpaceOnUse">
<stop stop-color="#FF9951"/>
<stop offset="0.336538" stop-color="#C659FC"/>
<stop offset="0.870192" stop-color="#5386FA"/>
</linearGradient>
</defs>
</svg>
