<svg width="24" height="24" viewBox="0 0 24 24" fill="none" xmlns="http://www.w3.org/2000/svg">
<path fill-rule="evenodd" clip-rule="evenodd" d="M14.9014 12.0127L13.4142 13.4999L15.5 15.5857L16.9872 14.0985C16.9492 13.7136 16.8072 13.2213 16.2929 12.707C15.7786 12.1927 15.2863 12.0507 14.9014 12.0127ZM18.7071 15.207C18.8926 15.0215 18.9978 14.7706 19 14.5082C19.0048 13.9299 18.9941 12.5797 17.7071 11.2928C16.4201 10.0059 15.0701 9.9951 14.4916 9.99994C14.2293 10.0021 13.9784 10.1073 13.7929 10.2928L6.29289 17.7928C6.05072 18.035 5.94932 18.3842 6.02417 18.7184L7 18.4999C6.02417 18.7184 6.02417 18.7184 6.02417 18.7184L6.0247 18.7208L6.02534 18.7236L6.02698 18.7307L6.03171 18.7505C6.03551 18.7662 6.04065 18.7867 6.04722 18.8117C6.06035 18.8616 6.0793 18.9295 6.1049 19.0122C6.15594 19.177 6.23435 19.4031 6.34741 19.6631C6.57043 20.176 6.94467 20.8588 7.54289 21.457C8.14112 22.0552 8.82386 22.4295 9.33679 22.6525C9.59681 22.7656 9.82295 22.844 9.98772 22.895C10.0704 22.9206 10.1383 22.9395 10.1882 22.9527C10.2132 22.9593 10.2337 22.9644 10.2494 22.9682L10.2692 22.9729L10.2763 22.9746L10.2791 22.9752L10.2803 22.9755C10.2803 22.9755 10.2815 22.9757 10.5 21.9999L10.2815 22.9757C10.3532 22.9918 10.4265 22.9999 10.5 22.9999H19C19.5523 22.9999 20 22.5522 20 21.9999C20 21.4476 19.5523 20.9999 19 20.9999H12.9142L18.7071 15.207ZM14.0858 16.9999L12 14.9141L8.14207 18.772C8.15445 18.8023 8.1676 18.8336 8.18153 18.8656C8.34316 19.2374 8.59392 19.6796 8.95711 20.0428C9.32029 20.406 9.76255 20.6567 10.1343 20.8184C10.1663 20.8323 10.1976 20.8454 10.2279 20.8578L14.0858 16.9999Z" fill="url(#paint0_linear_16_7073)"/>
<path fill-rule="evenodd" clip-rule="evenodd" d="M7 0.999902C7.43043 0.999902 7.81257 1.27533 7.94868 1.68367L9.04057 4.95933L12.3162 6.05122C12.7246 6.18733 13 6.56947 13 6.9999C13 7.43033 12.7246 7.81247 12.3162 7.94859L9.04057 9.04047L7.94868 12.3161C7.81257 12.7245 7.43043 12.9999 7 12.9999C6.56957 12.9999 6.18743 12.7245 6.05132 12.3161L4.95943 9.04047L1.68377 7.94859C1.27543 7.81247 1 7.43033 1 6.9999C1 6.56947 1.27543 6.18733 1.68377 6.05122L4.95943 4.95933L6.05132 1.68367C6.18743 1.27533 6.56957 0.999902 7 0.999902ZM7 5.16218L6.69868 6.06613C6.59915 6.36474 6.36483 6.59905 6.06623 6.69859L5.16228 6.9999L6.06623 7.30122C6.36483 7.40075 6.59915 7.63507 6.69868 7.93367L7 8.83762L7.30132 7.93367C7.40085 7.63507 7.63517 7.40075 7.93377 7.30122L8.83772 6.9999L7.93377 6.69859C7.63517 6.59905 7.40085 6.36474 7.30132 6.06613L7 5.16218Z" fill="url(#paint1_linear_16_7073)"/>
<path fill-rule="evenodd" clip-rule="evenodd" d="M18.5 0.399902C18.7583 0.399902 18.9875 0.56516 19.0692 0.810166L19.8493 3.15056L22.1897 3.93069C22.4347 4.01236 22.6 4.24164 22.6 4.4999C22.6 4.75816 22.4347 4.98744 22.1897 5.06911L19.8493 5.84924L19.0692 8.18964C18.9875 8.43464 18.7583 8.5999 18.5 8.5999C18.2417 8.5999 18.0125 8.43464 17.9308 8.18964L17.1507 5.84924L14.8103 5.06911C14.5653 4.98744 14.4 4.75816 14.4 4.4999C14.4 4.24164 14.5653 4.01236 14.8103 3.93069L17.1507 3.15056L17.9308 0.810166C18.0125 0.56516 18.2417 0.399902 18.5 0.399902Z" fill="url(#paint2_linear_16_7073)"/>
<defs>
<linearGradient id="paint0_linear_16_7073" x1="1.97852" y1="3.93115" x2="21.1173" y2="19.5634" gradientUnits="userSpaceOnUse">
<stop stop-color="#FF9951"/>
<stop offset="0.336538" stop-color="#C659FC"/>
<stop offset="0.870192" stop-color="#5386FA"/>
</linearGradient>
<linearGradient id="paint1_linear_16_7073" x1="1.97852" y1="3.93115" x2="21.1173" y2="19.5634" gradientUnits="userSpaceOnUse">
<stop stop-color="#FF9951"/>
<stop offset="0.336538" stop-color="#C659FC"/>
<stop offset="0.870192" stop-color="#5386FA"/>
</linearGradient>
<linearGradient id="paint2_linear_16_7073" x1="1.97852" y1="3.93115" x2="21.1173" y2="19.5634" gradientUnits="userSpaceOnUse">
<stop stop-color="#FF9951"/>
<stop offset="0.336538" stop-color="#C659FC"/>
<stop offset="0.870192" stop-color="#5386FA"/>
</linearGradient>
</defs>
</svg>
