<svg width="24" height="24" viewBox="0 0 24 24" fill="none" xmlns="http://www.w3.org/2000/svg">
<path fill-rule="evenodd" clip-rule="evenodd" d="M12.5 6C10.4388 6 8.69885 7.38669 8.16708 9.27997C8.05237 9.6884 7.69241 9.98 7.26906 10.0075C5.44421 10.1258 4 11.6447 4 13.5C4 15.3009 5.361 16.7853 7.10995 16.9786C7.152 16.9832 7.1932 16.9905 7.2334 17.0001H16.7359C16.8665 16.9643 17.0044 16.955 17.1416 16.9746C17.2581 16.9913 17.3778 17 17.5 17C18.8807 17 20 15.8807 20 14.5C20 13.2351 19.0597 12.1882 17.8403 12.0228C17.3081 11.9507 16.9279 11.471 16.9792 10.9364C16.9929 10.793 17 10.6475 17 10.5C17 8.01472 14.9853 6 12.5 6ZM17.1602 18.9873C17.108 18.9957 17.0546 19.0001 17.0001 19.0001H7.00006C6.8727 19.0001 6.7509 18.9763 6.63886 18.9328C4.00994 18.519 2 16.2449 2 13.5C2 10.8185 3.91848 8.58577 6.45829 8.09864C7.41335 5.698 9.75729 4 12.5 4C16.0077 4 18.8665 6.77853 18.9955 10.2547C20.7458 10.8714 22 12.5386 22 14.5C22 16.9853 19.9853 19 17.5 19C17.3858 19 17.2725 18.9957 17.1602 18.9873Z" fill="url(#paint0_linear_16_7079)"/>
<defs>
<linearGradient id="paint0_linear_16_7079" x1="2.90604" y1="6.34376" x2="15.7601" y2="20.9905" gradientUnits="userSpaceOnUse">
<stop stop-color="#FF9951"/>
<stop offset="0.336538" stop-color="#C659FC"/>
<stop offset="0.870192" stop-color="#5386FA"/>
</linearGradient>
</defs>
</svg>
