<svg width="24" height="24" viewBox="0 0 24 24" fill="none" xmlns="http://www.w3.org/2000/svg">
<path fill-rule="evenodd" clip-rule="evenodd" d="M10.8763 3.06958C11.2448 3.02362 11.6199 3 12 3C12.3801 3 12.7552 3.02362 13.1237 3.06958C13.6718 3.13792 14.0607 3.63759 13.9923 4.18563C13.924 4.73367 13.4243 5.12255 12.8763 5.05421C12.5896 5.01846 12.2972 5 12 5C11.7028 5 11.4104 5.01846 11.1237 5.05421C10.5757 5.12255 10.076 4.73367 10.0077 4.18563C9.93935 3.63759 10.3282 3.13792 10.8763 3.06958ZM4.18563 10.0077C4.73367 10.076 5.12255 10.5757 5.05421 11.1237C5.01846 11.4104 5 11.7028 5 12C5 12.2972 5.01846 12.5896 5.05421 12.8763C5.12255 13.4243 4.73367 13.924 4.18563 13.9923C3.63759 14.0607 3.13792 13.6718 3.06958 13.1237C3.02362 12.7552 3 12.3801 3 12C3 11.6199 3.02362 11.2448 3.06958 10.8763C3.13792 10.3282 3.63759 9.93935 4.18563 10.0077ZM19.8144 10.0077C20.3624 9.93935 20.8621 10.3282 20.9304 10.8763C20.9764 11.2448 21 11.6199 21 12C21 12.3801 20.9764 12.7552 20.9304 13.1237C20.8621 13.6718 20.3624 14.0607 19.8144 13.9923C19.2663 13.924 18.8775 13.4243 18.9458 12.8763C18.9815 12.5896 19 12.2972 19 12C19 11.7028 18.9815 11.4104 18.9458 11.1237C18.8775 10.5757 19.2663 10.076 19.8144 10.0077ZM10.0077 19.8144C10.076 19.2663 10.5757 18.8775 11.1237 18.9458C11.4104 18.9815 11.7028 19 12 19C12.2972 19 12.5896 18.9815 12.8763 18.9458C13.4243 18.8775 13.924 19.2663 13.9923 19.8144C14.0607 20.3624 13.6718 20.8621 13.1237 20.9304C12.7552 20.9764 12.3801 21 12 21C11.6199 21 11.2448 20.9764 10.8763 20.9304C10.3282 20.8621 9.93935 20.3624 10.0077 19.8144Z" fill="url(#paint0_linear_16_7089)"/>
<path fill-rule="evenodd" clip-rule="evenodd" d="M6.5 5C5.67157 5 5 5.67157 5 6.5C5 7.32843 5.67157 8 6.5 8C7.32843 8 8 7.32843 8 6.5C8 5.67157 7.32843 5 6.5 5ZM3 6.5C3 4.567 4.567 3 6.5 3C8.433 3 10 4.567 10 6.5C10 8.433 8.433 10 6.5 10C4.567 10 3 8.433 3 6.5Z" fill="url(#paint1_linear_16_7089)"/>
<path fill-rule="evenodd" clip-rule="evenodd" d="M6.5 16C5.67157 16 5 16.6716 5 17.5C5 18.3284 5.67157 19 6.5 19C7.32843 19 8 18.3284 8 17.5C8 16.6716 7.32843 16 6.5 16ZM3 17.5C3 15.567 4.567 14 6.5 14C8.433 14 10 15.567 10 17.5C10 19.433 8.433 21 6.5 21C4.567 21 3 19.433 3 17.5Z" fill="url(#paint2_linear_16_7089)"/>
<path fill-rule="evenodd" clip-rule="evenodd" d="M17.5 16C16.6716 16 16 16.6716 16 17.5C16 18.3284 16.6716 19 17.5 19C18.3284 19 19 18.3284 19 17.5C19 16.6716 18.3284 16 17.5 16ZM14 17.5C14 15.567 15.567 14 17.5 14C19.433 14 21 15.567 21 17.5C21 19.433 19.433 21 17.5 21C15.567 21 14 19.433 14 17.5Z" fill="url(#paint3_linear_16_7089)"/>
<path fill-rule="evenodd" clip-rule="evenodd" d="M17.5 5C16.6716 5 16 5.67157 16 6.5C16 7.32843 16.6716 8 17.5 8C18.3284 8 19 7.32843 19 6.5C19 5.67157 18.3284 5 17.5 5ZM14 6.5C14 4.567 15.567 3 17.5 3C19.433 3 21 4.567 21 6.5C21 8.433 19.433 10 17.5 10C15.567 10 14 8.433 14 6.5Z" fill="url(#paint4_linear_16_7089)"/>
<defs>
<linearGradient id="paint0_linear_16_7089" x1="3.81544" y1="5.8125" x2="19.1818" y2="18.9446" gradientUnits="userSpaceOnUse">
<stop stop-color="#FF9951"/>
<stop offset="0.336538" stop-color="#C659FC"/>
<stop offset="0.870192" stop-color="#5386FA"/>
</linearGradient>
<linearGradient id="paint1_linear_16_7089" x1="3.81544" y1="5.8125" x2="19.1818" y2="18.9446" gradientUnits="userSpaceOnUse">
<stop stop-color="#FF9951"/>
<stop offset="0.336538" stop-color="#C659FC"/>
<stop offset="0.870192" stop-color="#5386FA"/>
</linearGradient>
<linearGradient id="paint2_linear_16_7089" x1="3.81544" y1="5.8125" x2="19.1818" y2="18.9446" gradientUnits="userSpaceOnUse">
<stop stop-color="#FF9951"/>
<stop offset="0.336538" stop-color="#C659FC"/>
<stop offset="0.870192" stop-color="#5386FA"/>
</linearGradient>
<linearGradient id="paint3_linear_16_7089" x1="3.81544" y1="5.8125" x2="19.1818" y2="18.9446" gradientUnits="userSpaceOnUse">
<stop stop-color="#FF9951"/>
<stop offset="0.336538" stop-color="#C659FC"/>
<stop offset="0.870192" stop-color="#5386FA"/>
</linearGradient>
<linearGradient id="paint4_linear_16_7089" x1="3.81544" y1="5.8125" x2="19.1818" y2="18.9446" gradientUnits="userSpaceOnUse">
<stop stop-color="#FF9951"/>
<stop offset="0.336538" stop-color="#C659FC"/>
<stop offset="0.870192" stop-color="#5386FA"/>
</linearGradient>
</defs>
</svg>
