<svg width="24" height="24" viewBox="0 0 24 24" fill="none" xmlns="http://www.w3.org/2000/svg">
<path fill-rule="evenodd" clip-rule="evenodd" d="M6.71392 15.2095C8.1144 15.7097 9.98341 16 12 16C14.0166 16 15.8856 15.7097 17.2861 15.2095C17.982 14.961 18.616 14.6417 19.0951 14.2372C19.5695 13.8365 20 13.2537 20 12.5C20 11.9477 19.5523 11.5 19 11.5C18.4525 11.5 18.0077 11.94 18.0001 12.4857C17.9912 12.509 17.952 12.5847 17.8048 12.7091C17.5754 12.9027 17.1843 13.1221 16.6134 13.326C15.4804 13.7307 13.8494 14 12 14C10.1506 14 8.5196 13.7307 7.38659 13.326C6.81573 13.1221 6.42458 12.9027 6.19525 12.7091C6.04801 12.5847 6.00877 12.509 5.9999 12.4857C5.99227 11.94 5.54752 11.5 5 11.5C4.44772 11.5 4 11.9477 4 12.5C4 13.2537 4.43048 13.8365 4.90494 14.2372C5.38405 14.6417 6.01803 14.961 6.71392 15.2095Z" fill="url(#paint0_linear_16_7087)"/>
<path fill-rule="evenodd" clip-rule="evenodd" d="M6.00633 7.5C6.02321 7.53319 6.07042 7.60366 6.19525 7.70906C6.42458 7.9027 6.81573 8.12215 7.38659 8.32603C8.5196 8.73067 10.1506 9 12 9C13.8494 9 15.4804 8.73067 16.6134 8.32603C17.1843 8.12215 17.5754 7.9027 17.8048 7.70906C17.9296 7.60366 17.9768 7.53319 17.9937 7.5C17.9768 7.46681 17.9296 7.39634 17.8048 7.29094C17.5754 7.0973 17.1843 6.87785 16.6134 6.67397C15.4804 6.26933 13.8494 6 12 6C10.1506 6 8.5196 6.26933 7.38659 6.67397C6.81573 6.87785 6.42458 7.0973 6.19525 7.29094C6.07042 7.39634 6.02321 7.46681 6.00633 7.5ZM18 9.91726C17.7726 10.024 17.5333 10.1212 17.2861 10.2095C15.8856 10.7097 14.0166 11 12 11C9.98341 11 8.1144 10.7097 6.71392 10.2095C6.46674 10.1212 6.22738 10.024 6 9.91726V17.486C6.00906 17.5096 6.04856 17.5852 6.19525 17.7091C6.42458 17.9027 6.81573 18.1221 7.38659 18.326C8.5196 18.7307 10.1506 19 12 19C13.8494 19 15.4804 18.7307 16.6134 18.326C17.1843 18.1221 17.5754 17.9027 17.8048 17.7091C17.9514 17.5852 17.9909 17.5096 18 17.486V9.91726ZM20 7.5V17.5C20 18.2537 19.5695 18.8365 19.0951 19.2372C18.616 19.6417 17.982 19.961 17.2861 20.2095C15.8856 20.7097 14.0166 21 12 21C9.98341 21 8.1144 20.7097 6.71392 20.2095C6.01803 19.961 5.38405 19.6417 4.90494 19.2372C4.43048 18.8365 4 18.2537 4 17.5V7.5C4 6.74631 4.43048 6.16346 4.90494 5.76283C5.38405 5.35829 6.01803 5.03902 6.71392 4.79049C8.1144 4.29032 9.98341 4 12 4C14.0166 4 15.8856 4.29032 17.2861 4.79049C17.982 5.03902 18.616 5.35829 19.0951 5.76283C19.5695 6.16346 20 6.74631 20 7.5Z" fill="url(#paint1_linear_16_7087)"/>
<defs>
<linearGradient id="paint0_linear_16_7087" x1="4.72483" y1="6.65625" x2="19.0755" y2="18.1989" gradientUnits="userSpaceOnUse">
<stop stop-color="#FF9951"/>
<stop offset="0.336538" stop-color="#C659FC"/>
<stop offset="0.870192" stop-color="#5386FA"/>
</linearGradient>
<linearGradient id="paint1_linear_16_7087" x1="4.72483" y1="6.65625" x2="19.0755" y2="18.1989" gradientUnits="userSpaceOnUse">
<stop stop-color="#FF9951"/>
<stop offset="0.336538" stop-color="#C659FC"/>
<stop offset="0.870192" stop-color="#5386FA"/>
</linearGradient>
</defs>
</svg>
