<svg width="24" height="24" viewBox="0 0 24 24" fill="none" xmlns="http://www.w3.org/2000/svg">
<path fill-rule="evenodd" clip-rule="evenodd" d="M7 0C7.43043 0 7.81257 0.27543 7.94868 0.683772L9.29057 4.70943L13.3162 6.05132C13.7246 6.18743 14 6.56957 14 7C14 7.43043 13.7246 7.81257 13.3162 7.94868L9.29057 9.29057L7.94868 13.3162C7.81257 13.7246 7.43043 14 7 14C6.56957 14 6.18743 13.7246 6.05132 13.3162L4.70943 9.29057L0.683772 7.94868C0.27543 7.81257 0 7.43043 0 7C0 6.56957 0.27543 6.18743 0.683772 6.05132L4.70943 4.70943L6.05132 0.683772C6.18743 0.27543 6.56957 0 7 0ZM7 4.16228L6.44868 5.81623C6.34915 6.11483 6.11483 6.34915 5.81623 6.44868L4.16228 7L5.81623 7.55132C6.11483 7.65085 6.34915 7.88517 6.44868 8.18377L7 9.83772L7.55132 8.18377C7.65085 7.88517 7.88517 7.65085 8.18377 7.55132L9.83772 7L8.18377 6.44868C7.88517 6.34915 7.65085 6.11483 7.55132 5.81623L7 4.16228Z" fill="url(#paint0_linear_16_7061)"/>
<path fill-rule="evenodd" clip-rule="evenodd" d="M19.7929 6.79289C20.4596 6.12623 21.5404 6.12623 22.2071 6.79289C22.8738 7.45956 22.8738 8.54044 22.2071 9.20711L15.2071 16.2071C14.5404 16.8738 13.4596 16.8738 12.7929 16.2071C12.1262 15.5404 12.1262 14.4596 12.7929 13.7929L19.7929 6.79289Z" fill="url(#paint1_linear_16_7061)"/>
<path fill-rule="evenodd" clip-rule="evenodd" d="M7.22005 20.7939C7.75322 21.0079 8.31248 21.0462 8.87247 20.8181C9.5531 20.5408 9.79097 20.0892 9.85094 19.5905C9.88468 19.3101 9.8551 19.0215 9.78266 18.7768C9.70965 18.53 9.62219 18.4209 9.61479 18.4117C9.61436 18.4111 9.61467 18.4116 9.61479 18.4117C9.39942 18.1947 9.2584 18.1142 9.16855 18.0764C9.08087 18.0395 8.94036 18 8.66659 18C8.59742 18 8.47064 18.011 8.31135 18.0473C8.16606 18.0804 8.03111 18.1262 7.92286 18.1755C7.91598 18.2274 7.90922 18.2796 7.90219 18.3339C7.88753 18.4471 7.87172 18.5693 7.85132 18.7151C7.80678 19.0336 7.7437 19.431 7.62565 19.8332C7.53112 20.1554 7.40056 20.4808 7.22005 20.7939ZM5.70332 22.2576C6.74262 22.8889 8.1107 23.288 9.62697 22.6703C12.5 21.5 12.1775 18.1542 11.0337 17.002C10.3239 16.287 9.62697 16 8.66667 16C7.70637 16 6.15543 16.5256 6 17.5C5.96622 17.7117 5.93935 17.918 5.91336 18.1176C5.77863 19.1519 5.6674 20.0057 4.74019 20.5047C4.41657 20.6789 4.27445 21.1045 4.54014 21.3584C4.84756 21.6522 5.23023 21.9666 5.67384 22.2396C5.67384 22.2396 5.67384 22.2396 5.67384 22.2396C5.68361 22.2456 5.6935 22.2516 5.70332 22.2576C5.70335 22.2576 5.7033 22.2576 5.70332 22.2576Z" fill="url(#paint2_linear_16_7061)"/>
<defs>
<linearGradient id="paint0_linear_16_7061" x1="1.02868" y1="3.59045" x2="20.6078" y2="20.1249" gradientUnits="userSpaceOnUse">
<stop stop-color="#FF9951"/>
<stop offset="0.336538" stop-color="#C659FC"/>
<stop offset="0.870192" stop-color="#5386FA"/>
</linearGradient>
<linearGradient id="paint1_linear_16_7061" x1="1.02868" y1="3.59045" x2="20.6078" y2="20.1249" gradientUnits="userSpaceOnUse">
<stop stop-color="#FF9951"/>
<stop offset="0.336538" stop-color="#C659FC"/>
<stop offset="0.870192" stop-color="#5386FA"/>
</linearGradient>
<linearGradient id="paint2_linear_16_7061" x1="1.02868" y1="3.59045" x2="20.6078" y2="20.1249" gradientUnits="userSpaceOnUse">
<stop stop-color="#FF9951"/>
<stop offset="0.336538" stop-color="#C659FC"/>
<stop offset="0.870192" stop-color="#5386FA"/>
</linearGradient>
</defs>
</svg>
