<svg width="24" height="24" viewBox="0 0 24 24" fill="none" xmlns="http://www.w3.org/2000/svg">
<path fill-rule="evenodd" clip-rule="evenodd" d="M12.5 8C13.0523 8 13.5 8.44771 13.5 9V10.5H15C15.5523 10.5 16 10.9477 16 11.5C16 12.0523 15.5523 12.5 15 12.5H13.5V14C13.5 14.5523 13.0523 15 12.5 15C11.9477 15 11.5 14.5523 11.5 14V12.5H10C9.44771 12.5 9 12.0523 9 11.5C9 10.9477 9.44771 10.5 10 10.5H11.5V9C11.5 8.44771 11.9477 8 12.5 8Z" fill="url(#paint0_linear_16_7053)"/>
<path fill-rule="evenodd" clip-rule="evenodd" d="M6.5 0C6.93043 0 7.31257 0.27543 7.44868 0.683772L8.41557 3.58443L11.3162 4.55132C11.7246 4.68743 12 5.06957 12 5.5C12 5.93043 11.7246 6.31257 11.3162 6.44868L8.41557 7.41557L7.44868 10.3162C7.31257 10.7246 6.93043 11 6.5 11C6.06957 11 5.68743 10.7246 5.55132 10.3162L4.58443 7.41557L1.68377 6.44868C1.27543 6.31257 1 5.93043 1 5.5C1 5.06957 1.27543 4.68743 1.68377 4.55132L4.58443 3.58443L5.55132 0.683772C5.68743 0.27543 6.06957 0 6.5 0ZM6.5 4.16228L6.32368 4.69123C6.22415 4.98983 5.98983 5.22415 5.69123 5.32368L5.16228 5.5L5.69123 5.67632C5.98983 5.77585 6.22415 6.01017 6.32368 6.30877L6.5 6.83772L6.67632 6.30877C6.77585 6.01017 7.01017 5.77585 7.30877 5.67632L7.83772 5.5L7.30877 5.32368C7.01017 5.22415 6.77585 4.98983 6.67632 4.69123L6.5 4.16228Z" fill="url(#paint1_linear_16_7053)"/>
<path fill-rule="evenodd" clip-rule="evenodd" d="M7.70711 16.2929C8.09763 16.6834 8.09763 17.3166 7.70711 17.7071L3.70711 21.7071C3.31658 22.0976 2.68342 22.0976 2.29289 21.7071C1.90237 21.3166 1.90237 20.6834 2.29289 20.2929L6.29289 16.2929C6.68342 15.9024 7.31658 15.9024 7.70711 16.2929Z" fill="url(#paint2_linear_16_7053)"/>
<path fill-rule="evenodd" clip-rule="evenodd" d="M13.02 3.95109C13.1298 3.40985 13.6577 3.06014 14.1989 3.17001C18.0792 3.95766 21 7.38661 21 11.5C21 16.1944 17.1944 20 12.5 20C8.79748 20 5.65031 17.6333 4.48392 14.3332C4.29987 13.8125 4.57279 13.2412 5.09351 13.0572C5.61423 12.8731 6.18555 13.146 6.3696 13.6668C7.26239 16.1927 9.67142 18 12.5 18C16.0898 18 19 15.0898 19 11.5C19 8.35651 16.7676 5.7322 13.8011 5.13004C13.2598 5.02017 12.9101 4.49234 13.02 3.95109Z" fill="url(#paint3_linear_16_7053)"/>
<defs>
<linearGradient id="paint0_linear_16_7053" x1="1.90604" y1="3.4375" x2="20.3294" y2="17.7507" gradientUnits="userSpaceOnUse">
<stop stop-color="#FF9951"/>
<stop offset="0.336538" stop-color="#C659FC"/>
<stop offset="0.870192" stop-color="#5386FA"/>
</linearGradient>
<linearGradient id="paint1_linear_16_7053" x1="1.90604" y1="3.4375" x2="20.3294" y2="17.7507" gradientUnits="userSpaceOnUse">
<stop stop-color="#FF9951"/>
<stop offset="0.336538" stop-color="#C659FC"/>
<stop offset="0.870192" stop-color="#5386FA"/>
</linearGradient>
<linearGradient id="paint2_linear_16_7053" x1="1.90604" y1="3.4375" x2="20.3294" y2="17.7507" gradientUnits="userSpaceOnUse">
<stop stop-color="#FF9951"/>
<stop offset="0.336538" stop-color="#C659FC"/>
<stop offset="0.870192" stop-color="#5386FA"/>
</linearGradient>
<linearGradient id="paint3_linear_16_7053" x1="1.90604" y1="3.4375" x2="20.3294" y2="17.7507" gradientUnits="userSpaceOnUse">
<stop stop-color="#FF9951"/>
<stop offset="0.336538" stop-color="#C659FC"/>
<stop offset="0.870192" stop-color="#5386FA"/>
</linearGradient>
</defs>
</svg>
