<svg width="24" height="24" viewBox="0 0 24 24" fill="none" xmlns="http://www.w3.org/2000/svg">
<path fill-rule="evenodd" clip-rule="evenodd" d="M15.9999 1.99994L20.9998 1.99976C21.552 1.99974 21.9998 2.44739 21.9998 2.99964L22.0004 7.97392C22.0005 8.52621 21.5528 8.97397 21.0005 8.97404C20.4482 8.9741 20.0005 8.52644 20.0004 7.97415L20.0001 5.41382L18.7071 6.70688C18.3166 7.09742 17.6835 7.09744 17.2929 6.70693C16.9024 6.31642 16.9024 5.68326 17.2929 5.29272L18.5857 3.99985L16 3.99994C15.4477 3.99996 15 3.55226 15 2.99998C15 2.44769 15.4477 1.99996 15.9999 1.99994ZM15 7.99993C15.4304 7.99993 15.8126 8.27536 15.9487 8.6837L17.2906 12.7094L21.3162 14.0512C21.7246 14.1874 22 14.5695 22 14.9999C22 15.4304 21.7246 15.8125 21.3162 15.9486L17.2906 17.2905L15.9487 21.3162C15.8126 21.7245 15.4304 21.9999 15 21.9999C14.5696 21.9999 14.1874 21.7245 14.0513 21.3162L12.7094 17.2905L8.68376 15.9486C8.27542 15.8125 7.99999 15.4304 7.99999 14.9999C7.99999 14.5695 8.27542 14.1874 8.68376 14.0512L12.7094 12.7094L14.0513 8.6837C14.1874 8.27536 14.5696 7.99993 15 7.99993ZM15 12.1622L14.4487 13.8162C14.3491 14.1148 14.1148 14.3491 13.8162 14.4486L12.1623 14.9999L13.8162 15.5512C14.1148 15.6508 14.3491 15.8851 14.4487 16.1837L15 17.8377L15.5513 16.1837C15.6508 15.8851 15.8852 15.6508 16.1838 15.5512L17.8377 14.9999L16.1838 14.4486C15.8852 14.3491 15.6508 14.1148 15.5513 13.8162L15 12.1622ZM2.99988 15.0256C3.55217 15.0256 3.99994 15.4732 4 16.0255L4.0003 18.5859L5.29325 17.2928C5.68376 16.9023 6.31693 16.9022 6.70747 17.2928C7.09801 17.6833 7.09803 18.3164 6.70752 18.707L5.41474 19.9998L8.00038 19.9997C8.55267 19.9997 9.0004 20.4474 9.00042 20.9997C9.00044 21.552 8.55274 21.9997 8.00046 21.9997L3.00061 21.9999C2.44836 22 2.00064 21.5523 2.00057 21L2 16.0258C1.99994 15.4735 2.4476 15.0257 2.99988 15.0256Z" fill="url(#paint0_linear_16_7059)"/>
<path fill-rule="evenodd" clip-rule="evenodd" d="M7.49999 3.39993C7.75825 3.39993 7.98753 3.56519 8.0692 3.81019L8.84933 6.15059L11.1897 6.93072C11.4347 7.01239 11.6 7.24167 11.6 7.49993C11.6 7.75819 11.4347 7.98747 11.1897 8.06914L8.84933 8.84927L8.0692 11.1897C7.98753 11.4347 7.75825 11.5999 7.49999 11.5999C7.24173 11.5999 7.01245 11.4347 6.93078 11.1897L6.15065 8.84927L3.81026 8.06914C3.56525 7.98747 3.39999 7.75819 3.39999 7.49993C3.39999 7.24167 3.56525 7.01239 3.81026 6.93072L6.15065 6.15059L6.93078 3.81019C7.01245 3.56519 7.24173 3.39993 7.49999 3.39993Z" fill="url(#paint1_linear_16_7059)"/>
<defs>
<linearGradient id="paint0_linear_16_7059" x1="2.90606" y1="5.12478" x2="19.98" y2="19.7163" gradientUnits="userSpaceOnUse">
<stop stop-color="#FF9951"/>
<stop offset="0.336538" stop-color="#C659FC"/>
<stop offset="0.870192" stop-color="#5386FA"/>
</linearGradient>
<linearGradient id="paint1_linear_16_7059" x1="2.90606" y1="5.12478" x2="19.98" y2="19.7163" gradientUnits="userSpaceOnUse">
<stop stop-color="#FF9951"/>
<stop offset="0.336538" stop-color="#C659FC"/>
<stop offset="0.870192" stop-color="#5386FA"/>
</linearGradient>
</defs>
</svg>
