<svg width="24" height="24" viewBox="0 0 24 24" fill="none" xmlns="http://www.w3.org/2000/svg">
<path fill-rule="evenodd" clip-rule="evenodd" d="M8 4C8.55228 4 9 4.44772 9 5V8H10C10.5523 8 11 8.44772 11 9C11 9.55228 10.5523 10 10 10H6C5.44772 10 5 9.55228 5 9C5 8.44772 5.44772 8 6 8H7V5C7 4.44772 7.44772 4 8 4ZM16 4C16.5523 4 17 4.44772 17 5V9C17 9.55228 16.5523 10 16 10C15.4477 10 15 9.55228 15 9V5C15 4.44772 15.4477 4 16 4ZM8 12C8.55228 12 9 12.4477 9 13V19C9 19.5523 8.55228 20 8 20C7.44772 20 7 19.5523 7 19V13C7 12.4477 7.44772 12 8 12ZM13 13C13 12.4477 13.4477 12 14 12H18C18.5523 12 19 12.4477 19 13C19 13.5523 18.5523 14 18 14H17V19C17 19.5523 16.5523 20 16 20C15.4477 20 15 19.5523 15 19V14H14C13.4477 14 13 13.5523 13 13Z" fill="url(#paint0_linear_16_7083)"/>
<defs>
<linearGradient id="paint0_linear_16_7083" x1="5.63423" y1="6.5" x2="18.898" y2="16.4183" gradientUnits="userSpaceOnUse">
<stop stop-color="#FF9951"/>
<stop offset="0.336538" stop-color="#C659FC"/>
<stop offset="0.870192" stop-color="#5386FA"/>
</linearGradient>
</defs>
</svg>
