<svg width="24" height="24" viewBox="0 0 24 24" fill="none" xmlns="http://www.w3.org/2000/svg">
<path d="M6.38915 14C5.76606 14 5.32378 14.6097 5.69407 15.1108C5.8075 15.2643 5.933 15.4084 6.06916 15.5416C5.94332 15.6512 5.82637 15.7707 5.71955 15.8989C5.27026 16.4383 5 17.132 5 17.8889C5 19.6071 6.39289 21 8.11111 21C8.86797 21 9.56171 20.7297 10.1011 20.2804C10.2293 20.1736 10.3488 20.0567 10.4584 19.9308C10.5916 20.067 10.7357 20.1925 10.8892 20.3059C11.4795 20.7421 12.2096 21 13 21C13.7903 21 14.5205 20.7421 15.1108 20.3059C15.2643 20.1925 15.4084 20.067 15.5416 19.9308C15.6512 20.0567 15.7707 20.1736 15.8989 20.2805C16.4383 20.7297 17.132 21 17.8889 21C19.6071 21 21 19.6071 21 17.8889C21 17.132 20.7297 16.4383 20.2805 15.8989C20.1736 15.7707 20.0567 15.6512 19.9308 15.5416C20.067 15.4084 20.1925 15.2643 20.3059 15.1108C20.7421 14.5205 21 13.7903 21 13C21 12.2097 20.7421 11.4795 20.3059 10.8892C20.1925 10.7357 20.067 10.5916 19.9308 10.4584C20.0567 10.3488 20.1736 10.2293 20.2805 10.1011C20.7297 9.5617 21 8.86797 21 8.11111C21 6.39289 19.6071 5 17.8889 5C17.132 5 16.4383 5.27026 15.8989 5.71955C15.7707 5.82637 15.6512 5.94332 15.5416 6.06916C15.4084 5.933 15.2643 5.8075 15.1108 5.69407C14.6097 5.32378 14 5.76606 14 6.38915V7.21092C14 7.30788 14.0442 7.39854 14.1121 7.46785C14.5024 7.86684 15.0418 8.08453 15.5997 8.06831C16.1577 8.05209 16.6835 7.80344 17.05 7.38245C17.2567 7.14506 17.5547 7 17.8889 7C18.5025 7 19 7.49746 19 8.11111C19 8.44532 18.8549 8.74331 18.6175 8.95C18.1966 9.31653 17.9479 9.84233 17.9317 10.4003C17.9155 10.9582 18.1332 11.4976 18.5321 11.888C18.8232 12.1727 19 12.5639 19 13C19 13.4361 18.8232 13.8273 18.5321 14.1121C18.1332 14.5024 17.9155 15.0418 17.9317 15.5997C17.9479 16.1577 18.1966 16.6835 18.6175 17.05C18.8549 17.2567 19 17.5547 19 17.8889C19 18.5025 18.5025 19 17.8889 19C17.5547 19 17.2567 18.8549 17.05 18.6175C16.6835 18.1966 16.1577 17.9479 15.5997 17.9317C15.0418 17.9155 14.5024 18.1332 14.112 18.5321C13.8273 18.8232 13.4361 19 13 19C12.5639 19 12.1727 18.8232 11.8879 18.5321C11.4976 18.1332 10.9582 17.9155 10.4003 17.9317C9.84232 17.9479 9.31653 18.1966 8.95 18.6175C8.74331 18.8549 8.44531 19 8.11111 19C7.49746 19 7 18.5025 7 17.8889C7 17.5547 7.14506 17.2567 7.38245 17.05C7.80344 16.6835 8.05209 16.1577 8.06831 15.5997C8.08453 15.0418 7.86684 14.5024 7.46785 14.1121C7.39854 14.0442 7.30788 14 7.21092 14H6.38915Z" fill="url(#paint0_linear_16_7055)"/>
<path fill-rule="evenodd" clip-rule="evenodd" d="M6 0C6.43043 0 6.81257 0.27543 6.94868 0.683772L8.04057 3.95943L11.3162 5.05132C11.7246 5.18743 12 5.56957 12 6C12 6.43043 11.7246 6.81257 11.3162 6.94868L8.04057 8.04057L6.94868 11.3162C6.81257 11.7246 6.43043 12 6 12C5.56957 12 5.18743 11.7246 5.05132 11.3162L3.95943 8.04057L0.683772 6.94868C0.27543 6.81257 0 6.43043 0 6C0 5.56957 0.27543 5.18743 0.683772 5.05132L3.95943 3.95943L5.05132 0.683772C5.18743 0.27543 5.56957 0 6 0ZM6 4.16228L5.69868 5.06623C5.59915 5.36483 5.36483 5.59915 5.06623 5.69868L4.16228 6L5.06623 6.30132C5.36483 6.40085 5.59915 6.63517 5.69868 6.93377L6 7.83772L6.30132 6.93377C6.40085 6.63517 6.63517 6.40085 6.93377 6.30132L7.83772 6L6.93377 5.69868C6.63517 5.59915 6.40085 5.36483 6.30132 5.06623L6 4.16228Z" fill="url(#paint1_linear_16_7055)"/>
<path fill-rule="evenodd" clip-rule="evenodd" d="M14 12H12V14H14V12ZM12.0194 14.8353C12.0198 14.8373 12.0199 14.8384 12.0199 14.8384L12.0194 14.8353ZM12 10H14C14.9428 10 15.4142 10 15.7071 10.2929C16 10.5858 16 11.0572 16 12V14C16 14.9428 16 15.4142 15.7071 15.7071C15.4142 16 14.9428 16 14 16H12C11.0572 16 10.5858 16 10.2929 15.7071C10 15.4142 10 14.9428 10 14V12C10 11.0572 10 10.5858 10.2929 10.2929C10.5858 10 11.0572 10 12 10Z" fill="url(#paint2_linear_16_7055)"/>
<defs>
<linearGradient id="paint0_linear_16_7055" x1="0.951343" y1="3.28125" x2="18.8788" y2="18.602" gradientUnits="userSpaceOnUse">
<stop stop-color="#FF9951"/>
<stop offset="0.336538" stop-color="#C659FC"/>
<stop offset="0.870192" stop-color="#5386FA"/>
</linearGradient>
<linearGradient id="paint1_linear_16_7055" x1="0.951343" y1="3.28125" x2="18.8788" y2="18.602" gradientUnits="userSpaceOnUse">
<stop stop-color="#FF9951"/>
<stop offset="0.336538" stop-color="#C659FC"/>
<stop offset="0.870192" stop-color="#5386FA"/>
</linearGradient>
<linearGradient id="paint2_linear_16_7055" x1="0.951343" y1="3.28125" x2="18.8788" y2="18.602" gradientUnits="userSpaceOnUse">
<stop stop-color="#FF9951"/>
<stop offset="0.336538" stop-color="#C659FC"/>
<stop offset="0.870192" stop-color="#5386FA"/>
</linearGradient>
</defs>
</svg>
