<svg width="24" height="24" viewBox="0 0 24 24" fill="none" xmlns="http://www.w3.org/2000/svg">
<path fill-rule="evenodd" clip-rule="evenodd" d="M18 0C18.4304 0 18.8126 0.27543 18.9487 0.683772L20.0406 3.95943L23.3162 5.05132C23.7246 5.18743 24 5.56957 24 6C24 6.43043 23.7246 6.81257 23.3162 6.94868L20.0406 8.04057L18.9487 11.3162C18.8126 11.7246 18.4304 12 18 12C17.5696 12 17.1874 11.7246 17.0513 11.3162L15.9594 8.04057L12.6838 6.94868C12.2754 6.81257 12 6.43043 12 6C12 5.56957 12.2754 5.18743 12.6838 5.05132L15.9594 3.95943L17.0513 0.683772C17.1874 0.27543 17.5696 0 18 0ZM18 4.16228L17.6987 5.06623C17.5991 5.36483 17.3648 5.59915 17.0662 5.69868L16.1623 6L17.0662 6.30132C17.3648 6.40085 17.5991 6.63517 17.6987 6.93377L18 7.83772L18.3013 6.93377C18.4009 6.63517 18.6352 6.40085 18.9338 6.30132L19.8377 6L18.9338 5.69868C18.6352 5.59915 18.4009 5.36483 18.3013 5.06623L18 4.16228ZM8.7587 3L10 3C10.5523 3 11 3.44772 11 4C11 4.55228 10.5523 5 10 5H8.8C7.94342 5 7.36113 5.00078 6.91104 5.03755C6.47262 5.07337 6.24842 5.1383 6.09202 5.21799C5.7157 5.40973 5.40973 5.71569 5.21799 6.09202C5.1383 6.24842 5.07337 6.47262 5.03755 6.91104C5.00078 7.36113 5 7.94342 5 8.8V13.8194L6.37531 12.7191C6.74052 12.427 7.25948 12.427 7.6247 12.7191L9.42579 14.16L12.2929 11.2929C12.6834 10.9024 13.3166 10.9024 13.7071 11.2929C14.0976 11.6834 14.0976 12.3166 13.7071 12.7071L10.2071 16.2071C9.8468 16.5674 9.2732 16.5992 8.87531 16.2809L7 14.7806L5.1247 16.2809C5.0866 16.3113 5.04695 16.3386 5.00609 16.3626C5.01117 16.6427 5.02048 16.8801 5.03755 17.089C5.07337 17.5274 5.1383 17.7516 5.21799 17.908C5.40973 18.2843 5.7157 18.5903 6.09202 18.782C6.24842 18.8617 6.47262 18.9266 6.91104 18.9624C7.36113 18.9992 7.94342 19 8.8 19H15.2C16.0566 19 16.6389 18.9992 17.089 18.9624C17.5274 18.9266 17.7516 18.8617 17.908 18.782C18.2843 18.5903 18.5903 18.2843 18.782 17.908C18.8617 17.7516 18.9266 17.5274 18.9624 17.089C18.9992 16.6389 19 16.0566 19 15.2V14C19 13.4477 19.4477 13 20 13C20.5523 13 21 13.4477 21 14V15.2413C21 16.0463 21 16.7106 20.9558 17.2518C20.9099 17.8139 20.8113 18.3306 20.564 18.816C20.1805 19.5686 19.5686 20.1805 18.816 20.564C18.3306 20.8113 17.8139 20.9099 17.2518 20.9558C16.7106 21 16.0463 21 15.2413 21H8.75868C7.95372 21 7.28936 21 6.74817 20.9558C6.18608 20.9099 5.66937 20.8113 5.18404 20.564C4.43139 20.1805 3.81947 19.5686 3.43597 18.816C3.18868 18.3306 3.09012 17.8139 3.04419 17.2518C2.99998 16.7106 2.99999 16.0463 3 15.2413V8.7587C2.99999 7.95373 2.99998 7.28937 3.04419 6.74817C3.09012 6.18608 3.18868 5.66937 3.43597 5.18404C3.81947 4.43139 4.43139 3.81947 5.18404 3.43597C5.66937 3.18868 6.18608 3.09012 6.74818 3.04419C7.28937 2.99998 7.95373 2.99999 8.7587 3Z" fill="url(#paint0_linear_16_7045)"/>
<defs>
<linearGradient id="paint0_linear_16_7045" x1="3.95134" y1="3.28125" x2="21.8788" y2="18.602" gradientUnits="userSpaceOnUse">
<stop stop-color="#FF9951"/>
<stop offset="0.336538" stop-color="#C659FC"/>
<stop offset="0.870192" stop-color="#5386FA"/>
</linearGradient>
</defs>
</svg>
