<svg width="24" height="24" viewBox="0 0 24 24" fill="none" xmlns="http://www.w3.org/2000/svg">
<path fill-rule="evenodd" clip-rule="evenodd" d="M16.5 12.9999C15.5345 12.9999 14.5 13.969 14.5 15.4999C14.5 17.0308 15.5345 17.9999 16.5 17.9999C17.4655 17.9999 18.5 17.0308 18.5 15.4999C18.5 13.969 17.4655 12.9999 16.5 12.9999ZM12.5 15.4999C12.5 13.1648 14.1518 10.9999 16.5 10.9999C18.8482 10.9999 20.5 13.1648 20.5 15.4999C20.5 17.835 18.8482 19.9999 16.5 19.9999C14.1518 19.9999 12.5 17.835 12.5 15.4999Z" fill="url(#paint0_linear_16_7069)"/>
<path fill-rule="evenodd" clip-rule="evenodd" d="M13.5 0.399902C13.7582 0.399902 13.9875 0.56516 14.0692 0.810166L14.8493 3.15056L17.1897 3.93069C17.4347 4.01236 17.6 4.24164 17.6 4.4999C17.6 4.75816 17.4347 4.98744 17.1897 5.06911L14.8493 5.84924L14.0692 8.18964C13.9875 8.43464 13.7582 8.5999 13.5 8.5999C13.2417 8.5999 13.0124 8.43464 12.9308 8.18964L12.1506 5.84924L9.81025 5.06911C9.56525 4.98744 9.39999 4.75816 9.39999 4.4999C9.39999 4.24164 9.56525 4.01236 9.81025 3.93069L12.1506 3.15056L12.9308 0.810166C13.0124 0.56516 13.2417 0.399902 13.5 0.399902Z" fill="url(#paint1_linear_16_7069)"/>
<path fill-rule="evenodd" clip-rule="evenodd" d="M20.124 19.9922C19.576 20.0607 19.0762 19.672 19.0077 19.1239L18.0077 11.1239C17.9392 10.5759 18.3279 10.0761 18.876 10.0076C19.424 9.93912 19.9238 10.3278 19.9923 10.8759L20.9923 18.8759C21.0608 19.4239 20.672 19.9237 20.124 19.9922Z" fill="url(#paint2_linear_16_7069)"/>
<path fill-rule="evenodd" clip-rule="evenodd" d="M5.75149 7.75968C5.86193 7.31338 6.26245 6.9999 6.7222 6.9999H8.27775C8.73751 6.9999 9.13803 7.31339 9.24847 7.75968L11.9706 18.7597C12.1033 19.2958 11.7762 19.838 11.2401 19.9706C10.704 20.1033 10.1618 19.7762 10.0292 19.2401L9.47478 16.9999H5.5251L4.97071 19.2401C4.83803 19.7762 4.29588 20.1033 3.75976 19.9706C3.22365 19.8379 2.8966 19.2958 3.02927 18.7597L5.75149 7.75968ZM6.02005 14.9999H8.97985L7.49998 9.01979L6.02005 14.9999Z" fill="url(#paint3_linear_16_7069)"/>
<defs>
<linearGradient id="paint0_linear_16_7069" x1="3.81521" y1="3.46244" x2="20.2694" y2="16.3764" gradientUnits="userSpaceOnUse">
<stop stop-color="#FF9951"/>
<stop offset="0.336538" stop-color="#C659FC"/>
<stop offset="0.870192" stop-color="#5386FA"/>
</linearGradient>
<linearGradient id="paint1_linear_16_7069" x1="3.81521" y1="3.46244" x2="20.2694" y2="16.3764" gradientUnits="userSpaceOnUse">
<stop stop-color="#FF9951"/>
<stop offset="0.336538" stop-color="#C659FC"/>
<stop offset="0.870192" stop-color="#5386FA"/>
</linearGradient>
<linearGradient id="paint2_linear_16_7069" x1="3.81521" y1="3.46244" x2="20.2694" y2="16.3764" gradientUnits="userSpaceOnUse">
<stop stop-color="#FF9951"/>
<stop offset="0.336538" stop-color="#C659FC"/>
<stop offset="0.870192" stop-color="#5386FA"/>
</linearGradient>
<linearGradient id="paint3_linear_16_7069" x1="3.81521" y1="3.46244" x2="20.2694" y2="16.3764" gradientUnits="userSpaceOnUse">
<stop stop-color="#FF9951"/>
<stop offset="0.336538" stop-color="#C659FC"/>
<stop offset="0.870192" stop-color="#5386FA"/>
</linearGradient>
</defs>
</svg>
