<svg width="24" height="24" viewBox="0 0 24 24" fill="none" xmlns="http://www.w3.org/2000/svg">
<path fill-rule="evenodd" clip-rule="evenodd" d="M13.2242 5.05532C13.0207 5.00649 12.793 5.00006 12.0117 5.00006H9.7999C8.94332 5.00006 8.36103 5.00084 7.91094 5.03761C7.47252 5.07343 7.24832 5.13836 7.09192 5.21805C6.7156 5.4098 6.40964 5.71576 6.21789 6.09208C6.1382 6.24848 6.07327 6.47269 6.03745 6.9111C6.00068 7.36119 5.9999 7.94348 5.9999 8.80006V12.0001C5.9999 12.5523 5.55219 13.0001 4.9999 13.0001C4.44762 13.0001 3.9999 12.5523 3.9999 12.0001L3.9999 8.75876C3.99989 7.95379 3.99988 7.28943 4.0441 6.74824C4.09002 6.18614 4.18859 5.66944 4.43588 5.1841C4.81937 4.43145 5.43129 3.81953 6.18394 3.43604C6.66928 3.18875 7.18598 3.09018 7.74808 3.04426C8.28927 3.00004 8.95363 3.00005 9.7586 3.00006L12.0117 3.00006C12.0461 3.00006 12.08 3.00005 12.1136 3.00003C12.7486 2.99973 13.2283 2.9995 13.691 3.11058C14.0992 3.20857 14.4894 3.37019 14.8473 3.5895C15.253 3.83813 15.5921 4.17756 16.0409 4.62678C16.0646 4.65049 16.0886 4.67451 16.1129 4.69884L18.3011 6.88707C18.3255 6.9114 18.3495 6.9354 18.3732 6.95909C18.8224 7.40789 19.1618 7.74699 19.4105 8.15271C19.6298 8.5106 19.7914 8.90078 19.8894 9.30892C20.0005 9.77162 20.0002 10.2514 19.9999 10.8864C19.9999 10.9199 19.9999 10.9539 19.9999 10.9883V15.2413C19.9999 16.0463 19.9999 16.7107 19.9557 17.2519C19.9098 17.814 19.8112 18.3307 19.5639 18.816C19.1804 19.5687 18.5685 20.1806 17.8159 20.5641C17.3305 20.8114 16.8138 20.9099 16.2517 20.9559C15.7105 21.0001 15.0462 21.0001 14.2412 21.0001H12.9999C12.4476 21.0001 11.9999 20.5523 11.9999 20.0001C11.9999 19.4478 12.4476 19.0001 12.9999 19.0001H14.1999C15.0565 19.0001 15.6388 18.9993 16.0889 18.9625C16.5273 18.9267 16.7515 18.8618 16.9079 18.7821C17.2842 18.5903 17.5902 18.2844 17.7819 17.908C17.8616 17.7516 17.9265 17.5274 17.9624 17.089C17.9991 16.6389 17.9999 16.0566 17.9999 15.2001V10.9883C17.9999 10.2069 17.9935 9.97922 17.9446 9.77581C17.8956 9.57174 17.8148 9.37665 17.7052 9.19771C17.5959 9.01935 17.4394 8.85379 16.8869 8.30128L14.6987 6.11306C14.1462 5.56055 13.9806 5.40408 13.8023 5.29478C13.6233 5.18513 13.4282 5.10432 13.2242 5.05532Z" fill="url(#paint0_linear_16_7065)"/>
<path fill-rule="evenodd" clip-rule="evenodd" d="M6.9999 13.4001C7.25816 13.4001 7.48744 13.5653 7.56911 13.8103L8.47424 16.5257L11.1896 17.4309C11.4346 17.5125 11.5999 17.7418 11.5999 18.0001C11.5999 18.2583 11.4346 18.4876 11.1896 18.5693L8.47424 19.4744L7.56911 22.1898C7.48744 22.4348 7.25816 22.6001 6.9999 22.6001C6.74164 22.6001 6.51236 22.4348 6.43069 22.1898L5.52556 19.4744L2.81017 18.5693C2.56516 18.4876 2.3999 18.2583 2.3999 18.0001C2.3999 17.7418 2.56516 17.5125 2.81017 17.4309L5.52556 16.5257L6.43069 13.8103C6.51236 13.5653 6.74164 13.4001 6.9999 13.4001Z" fill="url(#paint1_linear_16_7065)"/>
<path fill-rule="evenodd" clip-rule="evenodd" d="M12.9999 4.00006C13.5522 4.00006 13.9999 4.44778 13.9999 5.00006V9.00006H17.9999C18.5522 9.00006 18.9999 9.44778 18.9999 10.0001C18.9999 10.5523 18.5522 11.0001 17.9999 11.0001H12.9999C12.4476 11.0001 11.9999 10.5523 11.9999 10.0001V5.00006C11.9999 4.44778 12.4476 4.00006 12.9999 4.00006Z" fill="url(#paint2_linear_16_7065)"/>
<defs>
<linearGradient id="paint0_linear_16_7065" x1="3.19722" y1="6.06251" x2="19.5597" y2="18.619" gradientUnits="userSpaceOnUse">
<stop stop-color="#FF9951"/>
<stop offset="0.336538" stop-color="#C659FC"/>
<stop offset="0.870192" stop-color="#5386FA"/>
</linearGradient>
<linearGradient id="paint1_linear_16_7065" x1="3.19722" y1="6.06251" x2="19.5597" y2="18.619" gradientUnits="userSpaceOnUse">
<stop stop-color="#FF9951"/>
<stop offset="0.336538" stop-color="#C659FC"/>
<stop offset="0.870192" stop-color="#5386FA"/>
</linearGradient>
<linearGradient id="paint2_linear_16_7065" x1="3.19722" y1="6.06251" x2="19.5597" y2="18.619" gradientUnits="userSpaceOnUse">
<stop stop-color="#FF9951"/>
<stop offset="0.336538" stop-color="#C659FC"/>
<stop offset="0.870192" stop-color="#5386FA"/>
</linearGradient>
</defs>
</svg>
