<svg width="24" height="25" viewBox="0 0 24 25" fill="none" xmlns="http://www.w3.org/2000/svg">
<path fill-rule="evenodd" clip-rule="evenodd" d="M13.8771 5.02701C13.7897 5.00628 13.6856 5 13.1554 5H13C12.4477 5 12 4.55228 12 4C12 3.44771 12.4477 3 13 3H13.1554C13.183 3 13.2104 2.99997 13.2376 2.99995C13.6396 2.99958 13.9941 2.99925 14.3388 3.08104C14.6416 3.1529 14.9314 3.27144 15.1978 3.43242C15.501 3.61565 15.7537 3.8643 16.0402 4.1463C16.0596 4.16538 16.0791 4.18462 16.0988 4.20399L16.909 4.99996C16.9241 4.99995 16.9391 4.99994 16.9541 4.99993C17.9191 4.9993 18.6368 4.99883 19.2488 5.19994C20.4562 5.59674 21.4033 6.54375 21.8001 7.75119C22.0012 8.36316 22.0007 9.08087 22.0001 10.0459C22 10.1007 22 10.1563 22 10.2128V15.2413C22 16.0463 22 16.7106 21.9558 17.2518C21.9099 17.8139 21.8113 18.3306 21.564 18.816C21.1805 19.5686 20.5686 20.1805 19.816 20.564C19.3306 20.8113 18.8139 20.9099 18.2518 20.9558C17.7106 21 17.0463 21 16.2413 21H7.75867C6.95371 21 6.28936 21 5.74817 20.9558C5.18607 20.9099 4.66936 20.8113 4.18403 20.564C3.43138 20.1805 2.81946 19.5686 2.43597 18.816C2.18867 18.3306 2.09011 17.8139 2.04419 17.2518C1.99997 16.7106 1.99998 16.0463 1.99999 15.2413L1.99999 13C1.99999 12.4477 2.44771 12 2.99999 12C3.55228 12 3.99999 12.4477 3.99999 13V15.2C3.99999 16.0566 4.00077 16.6389 4.03754 17.089C4.07336 17.5274 4.13829 17.7516 4.21798 17.908C4.40973 18.2843 4.71569 18.5903 5.09201 18.782C5.24841 18.8617 5.47261 18.9266 5.91103 18.9624C6.36112 18.9992 6.94341 19 7.79999 19H16.2C17.0566 19 17.6389 18.9992 18.089 18.9624C18.5274 18.9266 18.7516 18.8617 18.908 18.782C19.2843 18.5903 19.5903 18.2843 19.782 17.908C19.8617 17.7516 19.9266 17.5274 19.9624 17.089C19.9992 16.6389 20 16.0566 20 15.2V10.2128C20 9.00536 19.9874 8.64145 19.9 8.3756C19.7016 7.77187 19.2281 7.29837 18.6244 7.09997C18.3585 7.0126 17.9946 7 16.7872 7C16.7826 7 16.7772 7.00002 16.7712 7.00005C16.7126 7.00032 16.5921 7.00088 16.47 6.98156C16.2405 6.94524 16.0226 6.8561 15.8335 6.72118C15.7329 6.64942 15.6473 6.56459 15.6057 6.52332C15.6014 6.51909 15.5976 6.51531 15.5943 6.51206L14.6972 5.63066C14.3189 5.25907 14.2403 5.19059 14.1634 5.14414C14.0746 5.09048 13.978 5.05097 13.8771 5.02701Z" fill="url(#paint0_linear_16_7047)"/>
<path fill-rule="evenodd" clip-rule="evenodd" d="M5.5 0C5.93043 0 6.31257 0.27543 6.44868 0.683772L7.41557 3.58443L10.3162 4.55132C10.7246 4.68743 11 5.06957 11 5.5C11 5.93043 10.7246 6.31257 10.3162 6.44868L7.41557 7.41557L6.44868 10.3162C6.31257 10.7246 5.93043 11 5.5 11C5.06957 11 4.68743 10.7246 4.55132 10.3162L3.58443 7.41557L0.683772 6.44868C0.27543 6.31257 0 5.93043 0 5.5C0 5.06957 0.27543 4.68743 0.683772 4.55132L3.58443 3.58443L4.55132 0.683772C4.68743 0.27543 5.06957 0 5.5 0ZM5.5 4.16228L5.32368 4.69123C5.22415 4.98983 4.98983 5.22415 4.69123 5.32368L4.16228 5.5L4.69123 5.67632C4.98983 5.77585 5.22415 6.01017 5.32368 6.30877L5.5 6.83772L5.67632 6.30877C5.77585 6.01017 6.01017 5.77585 6.30877 5.67632L6.83772 5.5L6.30877 5.32368C6.01017 5.22415 5.77585 4.98983 5.67632 4.69123L5.5 4.16228Z" fill="url(#paint1_linear_16_7047)"/>
<path fill-rule="evenodd" clip-rule="evenodd" d="M12 11C10.8954 11 10 11.8954 10 13C10 14.1046 10.8954 15 12 15C13.1046 15 14 14.1046 14 13C14 11.8954 13.1046 11 12 11ZM8 13C8 10.7909 9.79086 9 12 9C14.2091 9 16 10.7909 16 13C16 15.2091 14.2091 17 12 17C9.79086 17 8 15.2091 8 13Z" fill="url(#paint2_linear_16_7047)"/>
<defs>
<linearGradient id="paint0_linear_16_7047" x1="0.996651" y1="3.28125" x2="19.0354" y2="19.4314" gradientUnits="userSpaceOnUse">
<stop stop-color="#FF9951"/>
<stop offset="0.336538" stop-color="#C659FC"/>
<stop offset="0.870192" stop-color="#5386FA"/>
</linearGradient>
<linearGradient id="paint1_linear_16_7047" x1="0.996651" y1="3.28125" x2="19.0354" y2="19.4314" gradientUnits="userSpaceOnUse">
<stop stop-color="#FF9951"/>
<stop offset="0.336538" stop-color="#C659FC"/>
<stop offset="0.870192" stop-color="#5386FA"/>
</linearGradient>
<linearGradient id="paint2_linear_16_7047" x1="0.996651" y1="3.28125" x2="19.0354" y2="19.4314" gradientUnits="userSpaceOnUse">
<stop stop-color="#FF9951"/>
<stop offset="0.336538" stop-color="#C659FC"/>
<stop offset="0.870192" stop-color="#5386FA"/>
</linearGradient>
</defs>
</svg>
