<svg width="24" height="24" viewBox="0 0 24 24" fill="none" xmlns="http://www.w3.org/2000/svg">
<path fill-rule="evenodd" clip-rule="evenodd" d="M17.9895 9.0698L16.9626 10.0967L18.9032 12.0371L19.9301 11.0102C19.8979 10.9004 19.8552 10.7779 19.8019 10.6497C19.6525 10.2906 19.4522 9.96311 19.2445 9.75543C19.0368 9.54774 18.7092 9.34739 18.3501 9.19805C18.2219 9.14475 18.0993 9.10198 17.9895 9.0698ZM17.4889 13.4512L15.5483 11.5109L10.3845 16.6743C9.75838 17.3004 9.38821 18.3187 9.19026 19.3086C9.14791 19.5205 9.11491 19.7233 9.08922 19.9107C9.27634 19.885 9.47894 19.852 9.69047 19.8097C10.6799 19.6116 11.6984 19.2413 12.3252 18.6146L17.4889 13.4512ZM8 21C7 21 7 20.9995 7 20.9995L7 20.9974L7.00001 20.9936L7.00008 20.9823L7.00054 20.9455C7.00105 20.9148 7.00201 20.8719 7.00387 20.8181C7.00758 20.7105 7.01486 20.5587 7.02915 20.3728C7.05764 20.0023 7.11455 19.4893 7.22909 18.9165C7.4505 17.8093 7.91903 16.3112 8.97033 15.26L16.938 7.29288C17.1235 7.1074 17.3744 7.00223 17.6368 7.00003C18.0758 6.99637 18.6313 7.14895 19.118 7.35134C19.6243 7.56188 20.2052 7.88773 20.6586 8.34116C21.1121 8.79461 21.438 9.37543 21.6486 9.88176C21.851 10.3685 22.0036 10.924 21.9999 11.3629C21.9977 11.6253 21.8925 11.8762 21.707 12.0617L13.7393 20.0288C12.6877 21.0804 11.19 21.5492 10.0829 21.7708C9.51028 21.8854 8.99735 21.9423 8.62701 21.9708C8.44116 21.9851 8.28942 21.9924 8.18188 21.9961C8.12806 21.998 8.08518 21.999 8.05448 21.9995L8.01768 21.9999L8.00639 22L8.00258 22L8.00113 22C8.00113 22 8 22 8 21ZM8 21V22C7.44772 22 7 21.5518 7 20.9995L8 21Z" fill="url(#paint0_linear_16_7075)"/>
<path fill-rule="evenodd" clip-rule="evenodd" d="M7.5 2C7.93043 2 8.31257 2.27543 8.44868 2.68377L9.41557 5.58443L12.3162 6.55132C12.7246 6.68743 13 7.06957 13 7.5C13 7.93043 12.7246 8.31257 12.3162 8.44868L9.41557 9.41557L8.44868 12.3162C8.31257 12.7246 7.93043 13 7.5 13C7.06957 13 6.68743 12.7246 6.55132 12.3162L5.58443 9.41557L2.68377 8.44868C2.27543 8.31257 2 7.93043 2 7.5C2 7.06957 2.27543 6.68743 2.68377 6.55132L5.58443 5.58443L6.55132 2.68377C6.68743 2.27543 7.06957 2 7.5 2ZM7.5 6.16228L7.32368 6.69123C7.22415 6.98983 6.98983 7.22415 6.69123 7.32368L6.16228 7.5L6.69123 7.67632C6.98983 7.77585 7.22415 8.01017 7.32368 8.30877L7.5 8.83772L7.67632 8.30877C7.77585 8.01017 8.01017 7.77585 8.30877 7.67632L8.83772 7.5L8.30877 7.32368C8.01017 7.22415 7.77585 6.98983 7.67632 6.69123L7.5 6.16228Z" fill="url(#paint1_linear_16_7075)"/>
<defs>
<linearGradient id="paint0_linear_16_7075" x1="2.90604" y1="5.125" x2="19.9798" y2="19.7162" gradientUnits="userSpaceOnUse">
<stop stop-color="#FF9951"/>
<stop offset="0.336538" stop-color="#C659FC"/>
<stop offset="0.870192" stop-color="#5386FA"/>
</linearGradient>
<linearGradient id="paint1_linear_16_7075" x1="2.90604" y1="5.125" x2="19.9798" y2="19.7162" gradientUnits="userSpaceOnUse">
<stop stop-color="#FF9951"/>
<stop offset="0.336538" stop-color="#C659FC"/>
<stop offset="0.870192" stop-color="#5386FA"/>
</linearGradient>
</defs>
</svg>
