<svg width="24" height="24" viewBox="0 0 24 24" fill="none" xmlns="http://www.w3.org/2000/svg">
<path fill-rule="evenodd" clip-rule="evenodd" d="M3 4.9999C3 4.44762 3.44772 3.9999 4 3.9999H8C8.55228 3.9999 9 4.44762 9 4.9999C9 5.55219 8.55228 5.9999 8 5.9999H7V16.9999H8C8.55228 16.9999 9 17.4476 9 17.9999C9 18.5522 8.55228 18.9999 8 18.9999H4C3.44772 18.9999 3 18.5522 3 17.9999C3 17.4476 3.44772 16.9999 4 16.9999H5V5.9999H4C3.44772 5.9999 3 5.55219 3 4.9999Z" fill="url(#paint0_linear_16_7063)"/>
<path fill-rule="evenodd" clip-rule="evenodd" d="M14.5 7.9999C14.9304 7.9999 15.3126 8.27533 15.4487 8.68367L16.4156 11.5843L19.3162 12.5512C19.7246 12.6873 20 13.0695 20 13.4999C20 13.9303 19.7246 14.3125 19.3162 14.4486L16.4156 15.4155L15.4487 18.3161C15.3126 18.7245 14.9304 18.9999 14.5 18.9999C14.0696 18.9999 13.6874 18.7245 13.5513 18.3161L12.5844 15.4155L9.68377 14.4486C9.27543 14.3125 9 13.9303 9 13.4999C9 13.0695 9.27543 12.6873 9.68377 12.5512L12.5844 11.5843L13.5513 8.68367C13.6874 8.27533 14.0696 7.9999 14.5 7.9999ZM14.5 12.1622L14.3237 12.6911C14.2241 12.9897 13.9898 13.2241 13.6912 13.3236L13.1623 13.4999L13.6912 13.6762C13.9898 13.7758 14.2241 14.0101 14.3237 14.3087L14.5 14.8376L14.6763 14.3087C14.7759 14.0101 15.0102 13.7758 15.3088 13.6762L15.8377 13.4999L15.3088 13.3236C15.0102 13.2241 14.7759 12.9897 14.6763 12.6911L14.5 12.1622Z" fill="url(#paint1_linear_16_7063)"/>
<path fill-rule="evenodd" clip-rule="evenodd" d="M20 2.3999C20.2583 2.3999 20.4875 2.56516 20.5692 2.81017L21.2243 4.77556L23.1897 5.43069C23.4347 5.51236 23.6 5.74164 23.6 5.9999C23.6 6.25816 23.4347 6.48744 23.1897 6.56911L21.2243 7.22424L20.5692 9.18964C20.4875 9.43464 20.2583 9.5999 20 9.5999C19.7417 9.5999 19.5125 9.43464 19.4308 9.18964L18.7757 7.22424L16.8103 6.56911C16.5653 6.48744 16.4 6.25816 16.4 5.9999C16.4 5.74164 16.5653 5.51236 16.8103 5.43069L18.7757 4.77556L19.4308 2.81017C19.5125 2.56516 19.7417 2.3999 20 2.3999Z" fill="url(#paint2_linear_16_7063)"/>
<defs>
<linearGradient id="paint0_linear_16_7063" x1="3.93322" y1="4.99365" x2="18.255" y2="20.1823" gradientUnits="userSpaceOnUse">
<stop stop-color="#FF9951"/>
<stop offset="0.336538" stop-color="#C659FC"/>
<stop offset="0.870192" stop-color="#5386FA"/>
</linearGradient>
<linearGradient id="paint1_linear_16_7063" x1="3.93322" y1="4.99365" x2="18.255" y2="20.1823" gradientUnits="userSpaceOnUse">
<stop stop-color="#FF9951"/>
<stop offset="0.336538" stop-color="#C659FC"/>
<stop offset="0.870192" stop-color="#5386FA"/>
</linearGradient>
<linearGradient id="paint2_linear_16_7063" x1="3.93322" y1="4.99365" x2="18.255" y2="20.1823" gradientUnits="userSpaceOnUse">
<stop stop-color="#FF9951"/>
<stop offset="0.336538" stop-color="#C659FC"/>
<stop offset="0.870192" stop-color="#5386FA"/>
</linearGradient>
</defs>
</svg>
