<svg width="24" height="24" viewBox="0 0 24 24" fill="none" xmlns="http://www.w3.org/2000/svg">
<path fill-rule="evenodd" clip-rule="evenodd" d="M13.6118 10.2612C14.0012 9.90599 14.5994 9.914 14.9792 10.2795L20.6935 15.7795C21.0914 16.1625 21.1035 16.7956 20.7205 17.1935C20.3375 17.5914 19.7044 17.6035 19.3065 17.2205L14.2674 12.3703L10.3168 15.9741C9.92364 16.3327 9.31847 16.3206 8.93995 15.9466L7.49017 14.5139L5.19283 16.7211C4.79457 17.1037 4.16153 17.0911 3.7789 16.6928C3.39626 16.2946 3.40892 15.6615 3.80717 15.2789L6.80717 12.3965C7.19815 12.0209 7.81726 12.0253 8.20291 12.4064L9.67041 13.8566L13.6118 10.2612Z" fill="url(#paint0_linear_16_7049)"/>
<path fill-rule="evenodd" clip-rule="evenodd" d="M7.5 0C7.93043 0 8.31257 0.27543 8.44868 0.683772L9.41557 3.58443L12.3162 4.55132C12.7246 4.68743 13 5.06957 13 5.5C13 5.93043 12.7246 6.31257 12.3162 6.44868L9.41557 7.41557L8.44868 10.3162C8.31257 10.7246 7.93043 11 7.5 11C7.06957 11 6.68743 10.7246 6.55132 10.3162L5.58443 7.41557L2.68377 6.44868C2.27543 6.31257 2 5.93043 2 5.5C2 5.06957 2.27543 4.68743 2.68377 4.55132L5.58443 3.58443L6.55132 0.683772C6.68743 0.27543 7.06957 0 7.5 0ZM7.5 4.16228L7.32368 4.69123C7.22415 4.98983 6.98983 5.22415 6.69123 5.32368L6.16228 5.5L6.69123 5.67632C6.98983 5.77585 7.22415 6.01017 7.32368 6.30877L7.5 6.83772L7.67632 6.30877C7.77585 6.01017 8.01017 5.77585 8.30877 5.67632L8.83772 5.5L8.30877 5.32368C8.01017 5.22415 7.77585 4.98983 7.67632 4.69123L7.5 4.16228Z" fill="url(#paint1_linear_16_7049)"/>
<path d="M3 20C3 19.4477 3.44772 19 4 19C4.55228 19 5 19.4477 5 20C5 20.5523 4.55228 21 4 21C3.44772 21 3 20.5523 3 20Z" fill="url(#paint2_linear_16_7049)"/>
<path d="M3 11C3 10.4477 3.44772 10 4 10C4.55228 10 5 10.4477 5 11C5 11.5523 4.55228 12 4 12C3.44772 12 3 11.5523 3 11Z" fill="url(#paint3_linear_16_7049)"/>
<path d="M7 20C7 19.4477 7.44772 19 8 19C8.55228 19 9 19.4477 9 20C9 20.5523 8.55228 21 8 21C7.44772 21 7 20.5523 7 20Z" fill="url(#paint4_linear_16_7049)"/>
<path d="M11 20C11 19.4477 11.4477 19 12 19C12.5523 19 13 19.4477 13 20C13 20.5523 12.5523 21 12 21C11.4477 21 11 20.5523 11 20Z" fill="url(#paint5_linear_16_7049)"/>
<path d="M15 20C15 19.4477 15.4477 19 16 19C16.5523 19 17 19.4477 17 20C17 20.5523 16.5523 21 16 21C15.4477 21 15 20.5523 15 20Z" fill="url(#paint6_linear_16_7049)"/>
<path d="M19 20C19 19.4477 19.4477 19 20 19C20.5523 19 21 19.4477 21 20C21 20.5523 20.5523 21 20 21C19.4477 21 19 20.5523 19 20Z" fill="url(#paint7_linear_16_7049)"/>
<path d="M19 12C19 11.4477 19.4477 11 20 11C20.5523 11 21 11.4477 21 12C21 12.5523 20.5523 13 20 13C19.4477 13 19 12.5523 19 12Z" fill="url(#paint8_linear_16_7049)"/>
<path d="M19 8C19 7.44772 19.4477 7 20 7C20.5523 7 21 7.44772 21 8C21 8.55228 20.5523 9 20 9C19.4477 9 19 8.55228 19 8Z" fill="url(#paint9_linear_16_7049)"/>
<path d="M19 4C19 3.44772 19.4477 3 20 3C20.5523 3 21 3.44772 21 4C21 4.55228 20.5523 5 20 5C19.4477 5 19 4.55228 19 4Z" fill="url(#paint10_linear_16_7049)"/>
<path d="M15 4C15 3.44772 15.4477 3 16 3C16.5523 3 17 3.44772 17 4C17 4.55228 16.5523 5 16 5C15.4477 5 15 4.55228 15 4Z" fill="url(#paint11_linear_16_7049)"/>
<defs>
<linearGradient id="paint0_linear_16_7049" x1="2.86074" y1="3.28125" x2="20.4257" y2="16.8627" gradientUnits="userSpaceOnUse">
<stop stop-color="#FF9951"/>
<stop offset="0.336538" stop-color="#C659FC"/>
<stop offset="0.870192" stop-color="#5386FA"/>
</linearGradient>
<linearGradient id="paint1_linear_16_7049" x1="2.86074" y1="3.28125" x2="20.4257" y2="16.8627" gradientUnits="userSpaceOnUse">
<stop stop-color="#FF9951"/>
<stop offset="0.336538" stop-color="#C659FC"/>
<stop offset="0.870192" stop-color="#5386FA"/>
</linearGradient>
<linearGradient id="paint2_linear_16_7049" x1="2.86074" y1="3.28125" x2="20.4257" y2="16.8627" gradientUnits="userSpaceOnUse">
<stop stop-color="#FF9951"/>
<stop offset="0.336538" stop-color="#C659FC"/>
<stop offset="0.870192" stop-color="#5386FA"/>
</linearGradient>
<linearGradient id="paint3_linear_16_7049" x1="2.86074" y1="3.28125" x2="20.4257" y2="16.8627" gradientUnits="userSpaceOnUse">
<stop stop-color="#FF9951"/>
<stop offset="0.336538" stop-color="#C659FC"/>
<stop offset="0.870192" stop-color="#5386FA"/>
</linearGradient>
<linearGradient id="paint4_linear_16_7049" x1="2.86074" y1="3.28125" x2="20.4257" y2="16.8627" gradientUnits="userSpaceOnUse">
<stop stop-color="#FF9951"/>
<stop offset="0.336538" stop-color="#C659FC"/>
<stop offset="0.870192" stop-color="#5386FA"/>
</linearGradient>
<linearGradient id="paint5_linear_16_7049" x1="2.86074" y1="3.28125" x2="20.4257" y2="16.8627" gradientUnits="userSpaceOnUse">
<stop stop-color="#FF9951"/>
<stop offset="0.336538" stop-color="#C659FC"/>
<stop offset="0.870192" stop-color="#5386FA"/>
</linearGradient>
<linearGradient id="paint6_linear_16_7049" x1="2.86074" y1="3.28125" x2="20.4257" y2="16.8627" gradientUnits="userSpaceOnUse">
<stop stop-color="#FF9951"/>
<stop offset="0.336538" stop-color="#C659FC"/>
<stop offset="0.870192" stop-color="#5386FA"/>
</linearGradient>
<linearGradient id="paint7_linear_16_7049" x1="2.86074" y1="3.28125" x2="20.4257" y2="16.8627" gradientUnits="userSpaceOnUse">
<stop stop-color="#FF9951"/>
<stop offset="0.336538" stop-color="#C659FC"/>
<stop offset="0.870192" stop-color="#5386FA"/>
</linearGradient>
<linearGradient id="paint8_linear_16_7049" x1="2.86074" y1="3.28125" x2="20.4257" y2="16.8627" gradientUnits="userSpaceOnUse">
<stop stop-color="#FF9951"/>
<stop offset="0.336538" stop-color="#C659FC"/>
<stop offset="0.870192" stop-color="#5386FA"/>
</linearGradient>
<linearGradient id="paint9_linear_16_7049" x1="2.86074" y1="3.28125" x2="20.4257" y2="16.8627" gradientUnits="userSpaceOnUse">
<stop stop-color="#FF9951"/>
<stop offset="0.336538" stop-color="#C659FC"/>
<stop offset="0.870192" stop-color="#5386FA"/>
</linearGradient>
<linearGradient id="paint10_linear_16_7049" x1="2.86074" y1="3.28125" x2="20.4257" y2="16.8627" gradientUnits="userSpaceOnUse">
<stop stop-color="#FF9951"/>
<stop offset="0.336538" stop-color="#C659FC"/>
<stop offset="0.870192" stop-color="#5386FA"/>
</linearGradient>
<linearGradient id="paint11_linear_16_7049" x1="2.86074" y1="3.28125" x2="20.4257" y2="16.8627" gradientUnits="userSpaceOnUse">
<stop stop-color="#FF9951"/>
<stop offset="0.336538" stop-color="#C659FC"/>
<stop offset="0.870192" stop-color="#5386FA"/>
</linearGradient>
</defs>
</svg>
