<svg width="24" height="24" viewBox="0 0 24 24" fill="none" xmlns="http://www.w3.org/2000/svg">
<path fill-rule="evenodd" clip-rule="evenodd" d="M11.9999 4.99994C12.4304 4.99994 12.8125 5.27537 12.9486 5.68372L14.2905 9.70938L18.3162 11.0513C18.7245 11.1874 18.9999 11.5695 18.9999 11.9999C18.9999 12.4304 18.7245 12.8125 18.3162 12.9486L14.2905 14.2905L12.9486 18.3162C12.8125 18.7245 12.4304 18.9999 11.9999 18.9999C11.5695 18.9999 11.1874 18.7245 11.0513 18.3162L9.70938 14.2905L5.68372 12.9486C5.27538 12.8125 4.99995 12.4304 4.99995 11.9999C4.99995 11.5695 5.27538 11.1874 5.68372 11.0513L9.70938 9.70938L11.0513 5.68372C11.1874 5.27537 11.5695 4.99994 11.9999 4.99994ZM11.9999 9.16222L11.4486 10.8162C11.3491 11.1148 11.1148 11.3491 10.8162 11.4486L9.16223 11.9999L10.8162 12.5513C11.1148 12.6508 11.3491 12.8851 11.4486 13.1837L11.9999 14.8377L12.5513 13.1837C12.6508 12.8851 12.8851 12.6508 13.1837 12.5513L14.8377 11.9999L13.1837 11.4486C12.8851 11.3491 12.6508 11.1148 12.5513 10.8162L11.9999 9.16222Z" fill="url(#paint0_linear_16_7043)"/>
<path fill-rule="evenodd" clip-rule="evenodd" d="M13.9261 3.15154C14.1027 2.62823 14.67 2.34714 15.1934 2.52369C15.6067 2.66314 16.0106 2.82939 16.4023 3.02128C16.8983 3.26425 17.1034 3.86327 16.8604 4.35924C16.6175 4.85521 16.0184 5.06032 15.5225 4.81736C15.2087 4.66363 14.8851 4.53045 14.554 4.41874C14.0307 4.24219 13.7496 3.67484 13.9261 3.15154ZM10.0343 3.15942C10.2134 3.68183 9.9352 4.25058 9.41278 4.42976C9.2485 4.48611 9.08483 4.54816 8.92199 4.61604C8.75915 4.68392 8.59986 4.75649 8.4442 4.83351C7.94919 5.07844 7.34936 4.87571 7.10443 4.38071C6.8595 3.8857 7.06223 3.28587 7.55724 3.04094C7.75144 2.94486 7.94989 2.85445 8.15248 2.77001C8.35506 2.68556 8.55897 2.60824 8.76392 2.53794C9.28633 2.35876 9.85508 2.63701 10.0343 3.15942ZM19.6192 7.10443C20.1142 6.8595 20.714 7.06223 20.9589 7.55724C21.055 7.75144 21.1454 7.94989 21.2299 8.15248C21.3143 8.35506 21.3917 8.55897 21.4619 8.76392C21.6411 9.28633 21.3629 9.85508 20.8405 10.0343C20.3181 10.2134 19.7493 9.9352 19.5701 9.41278C19.5138 9.2485 19.4517 9.08483 19.3838 8.92199C19.316 8.75915 19.2434 8.59986 19.1664 8.4442C18.9214 7.94919 19.1242 7.34936 19.6192 7.10443ZM4.35924 7.13947C4.85521 7.38243 5.06032 7.98145 4.81736 8.47743C4.66363 8.79123 4.53045 9.11481 4.41874 9.44591C4.24219 9.96921 3.67484 10.2503 3.15154 10.0737C2.62823 9.89719 2.34714 9.32984 2.52369 8.80654C2.66314 8.39322 2.82939 7.98931 3.02128 7.59758C3.26425 7.10161 3.86327 6.8965 4.35924 7.13947ZM20.8484 13.9261C21.3717 14.1027 21.6528 14.67 21.4762 15.1934C21.3367 15.6067 21.1705 16.0106 20.9786 16.4023C20.7356 16.8983 20.1366 17.1034 19.6406 16.8604C19.1447 16.6175 18.9396 16.0184 19.1825 15.5225C19.3363 15.2087 19.4694 14.8851 19.5811 14.554C19.7577 14.0307 20.3251 13.7496 20.8484 13.9261ZM3.15942 13.9656C3.68183 13.7864 4.25058 14.0647 4.42976 14.5871C4.48611 14.7514 4.54816 14.9151 4.61604 15.0779C4.68392 15.2407 4.75649 15.4 4.83351 15.5557C5.07844 16.0507 4.87571 16.6505 4.38071 16.8955C3.8857 17.1404 3.28587 16.9377 3.04094 16.4427C2.94486 16.2485 2.85445 16.05 2.77001 15.8474C2.68556 15.6448 2.60824 15.4409 2.53794 15.236C2.35876 14.7136 2.63701 14.1448 3.15942 13.9656ZM16.8955 19.6192C17.1404 20.1142 16.9377 20.714 16.4427 20.9589C16.2485 21.055 16.05 21.1454 15.8474 21.2299C15.6448 21.3143 15.4409 21.3917 15.236 21.4619C14.7136 21.6411 14.1448 21.3629 13.9656 20.8405C13.7864 20.3181 14.0647 19.7493 14.5871 19.5701C14.7514 19.5138 14.9151 19.4517 15.0779 19.3838C15.2407 19.316 15.4 19.2434 15.5557 19.1664C16.0507 18.9214 16.6505 19.1242 16.8955 19.6192ZM7.13947 19.6406C7.38243 19.1447 7.98145 18.9396 8.47743 19.1825C8.79123 19.3363 9.11481 19.4694 9.44591 19.5811C9.96921 19.7577 10.2503 20.3251 10.0737 20.8484C9.89719 21.3717 9.32984 21.6528 8.80654 21.4762C8.39322 21.3367 7.98931 21.1705 7.59758 20.9786C7.10161 20.7356 6.8965 20.1366 7.13947 19.6406Z" fill="url(#paint1_linear_16_7043)"/>
<defs>
<linearGradient id="paint0_linear_16_7043" x1="3.33431" y1="5.44876" x2="19.6039" y2="19.3527" gradientUnits="userSpaceOnUse">
<stop stop-color="#FF9951"/>
<stop offset="0.336538" stop-color="#C659FC"/>
<stop offset="0.870192" stop-color="#5386FA"/>
</linearGradient>
<linearGradient id="paint1_linear_16_7043" x1="3.33431" y1="5.44876" x2="19.6039" y2="19.3527" gradientUnits="userSpaceOnUse">
<stop stop-color="#FF9951"/>
<stop offset="0.336538" stop-color="#C659FC"/>
<stop offset="0.870192" stop-color="#5386FA"/>
</linearGradient>
</defs>
</svg>
