<svg width="24" height="24" viewBox="0 0 24 24" fill="none" xmlns="http://www.w3.org/2000/svg">
<path fill-rule="evenodd" clip-rule="evenodd" d="M3 4C3 3.44772 3.44772 3 4 3H6C6.55228 3 7 3.44772 7 4C7 4.55228 6.55228 5 6 5H5V6C5 6.55228 4.55228 7 4 7C3.44772 7 3 6.55228 3 6V4ZM9 4C9 3.44772 9.44772 3 10 3H14C14.5523 3 15 3.44772 15 4C15 4.55228 14.5523 5 14 5H10C9.44772 5 9 4.55228 9 4ZM17 4C17 3.44772 17.4477 3 18 3H20C20.5523 3 21 3.44772 21 4V6C21 6.55228 20.5523 7 20 7C19.4477 7 19 6.55228 19 6V5H18C17.4477 5 17 4.55228 17 4ZM4 9C4.55228 9 5 9.44772 5 10V14C5 14.5523 4.55228 15 4 15C3.44772 15 3 14.5523 3 14V10C3 9.44772 3.44772 9 4 9ZM20 9C20.5523 9 21 9.44772 21 10V14C21 14.5523 20.5523 15 20 15C19.4477 15 19 14.5523 19 14V10C19 9.44772 19.4477 9 20 9ZM4 17C4.55228 17 5 17.4477 5 18V19H6C6.55228 19 7 19.4477 7 20C7 20.5523 6.55228 21 6 21H4C3.44772 21 3 20.5523 3 20V18C3 17.4477 3.44772 17 4 17ZM20 17C20.5523 17 21 17.4477 21 18V20C21 20.5523 20.5523 21 20 21H18C17.4477 21 17 20.5523 17 20C17 19.4477 17.4477 19 18 19H19V18C19 17.4477 19.4477 17 20 17ZM9 20C9 19.4477 9.44772 19 10 19H14C14.5523 19 15 19.4477 15 20C15 20.5523 14.5523 21 14 21H10C9.44772 21 9 20.5523 9 20Z" fill="url(#paint0_linear_16_7039)"/>
<path fill-rule="evenodd" clip-rule="evenodd" d="M12 6C12.4304 6 12.8126 6.27543 12.9487 6.68377L14.0406 9.95943L17.3162 11.0513C17.7246 11.1874 18 11.5696 18 12C18 12.4304 17.7246 12.8126 17.3162 12.9487L14.0406 14.0406L12.9487 17.3162C12.8126 17.7246 12.4304 18 12 18C11.5696 18 11.1874 17.7246 11.0513 17.3162L9.95943 14.0406L6.68377 12.9487C6.27543 12.8126 6 12.4304 6 12C6 11.5696 6.27543 11.1874 6.68377 11.0513L9.95943 9.95943L11.0513 6.68377C11.1874 6.27543 11.5696 6 12 6ZM12 10.1623L11.6987 11.0662C11.5991 11.3648 11.3648 11.5991 11.0662 11.6987L10.1623 12L11.0662 12.3013C11.3648 12.4009 11.5991 12.6352 11.6987 12.9338L12 13.8377L12.3013 12.9338C12.4009 12.6352 12.6352 12.4009 12.9338 12.3013L13.8377 12L12.9338 11.6987C12.6352 11.5991 12.4009 11.3648 12.3013 11.0662L12 10.1623Z" fill="url(#paint1_linear_16_7039)"/>
<defs>
<linearGradient id="paint0_linear_16_7039" x1="3.81544" y1="5.8125" x2="19.1818" y2="18.9446" gradientUnits="userSpaceOnUse">
<stop stop-color="#FF9951"/>
<stop offset="0.336538" stop-color="#C659FC"/>
<stop offset="0.870192" stop-color="#5386FA"/>
</linearGradient>
<linearGradient id="paint1_linear_16_7039" x1="3.81544" y1="5.8125" x2="19.1818" y2="18.9446" gradientUnits="userSpaceOnUse">
<stop stop-color="#FF9951"/>
<stop offset="0.336538" stop-color="#C659FC"/>
<stop offset="0.870192" stop-color="#5386FA"/>
</linearGradient>
</defs>
</svg>
