<svg width="24" height="24" viewBox="0 0 24 24" fill="none" xmlns="http://www.w3.org/2000/svg">
<path fill-rule="evenodd" clip-rule="evenodd" d="M13.02 3.9511C13.1299 3.40985 13.6577 3.06015 14.1989 3.17001C18.0792 3.95766 21 7.38661 21 11.5C21 16.1944 17.1944 20 12.5 20C8.79749 20 5.65032 17.6333 4.48393 14.3332C4.29988 13.8125 4.5728 13.2412 5.09352 13.0572C5.61423 12.8731 6.18556 13.146 6.36961 13.6668C7.26239 16.1927 9.67142 18 12.5 18C16.0899 18 19 15.0899 19 11.5C19 8.35652 16.7676 5.73221 13.8011 5.13004C13.2598 5.02017 12.9101 4.49234 13.02 3.9511Z" fill="url(#paint0_linear_16_7057)"/>
<path fill-rule="evenodd" clip-rule="evenodd" d="M9 11.5C9 10.9477 9.44771 10.5 10 10.5H15C15.5523 10.5 16 10.9477 16 11.5C16 12.0523 15.5523 12.5 15 12.5H10C9.44771 12.5 9 12.0523 9 11.5Z" fill="url(#paint1_linear_16_7057)"/>
<path fill-rule="evenodd" clip-rule="evenodd" d="M5.5 0C5.93043 0 6.31257 0.27543 6.44868 0.683772L7.41557 3.58443L10.3162 4.55132C10.7246 4.68743 11 5.06957 11 5.5C11 5.93043 10.7246 6.31257 10.3162 6.44868L7.41557 7.41557L6.44868 10.3162C6.31257 10.7246 5.93043 11 5.5 11C5.06957 11 4.68743 10.7246 4.55132 10.3162L3.58443 7.41557L0.683772 6.44868C0.27543 6.31257 0 5.93043 0 5.5C0 5.06957 0.27543 4.68743 0.683772 4.55132L3.58443 3.58443L4.55132 0.683772C4.68743 0.27543 5.06957 0 5.5 0ZM5.5 4.16228L5.32368 4.69123C5.22415 4.98983 4.98983 5.22415 4.69123 5.32368L4.16228 5.5L4.69123 5.67632C4.98983 5.77585 5.22415 6.01017 5.32368 6.30877L5.5 6.83772L5.67632 6.30877C5.77585 6.01017 6.01017 5.77585 6.30877 5.67632L6.83772 5.5L6.30877 5.32368C6.01017 5.22415 5.77585 4.98983 5.67632 4.69123L5.5 4.16228Z" fill="url(#paint2_linear_16_7057)"/>
<path fill-rule="evenodd" clip-rule="evenodd" d="M7.70711 16.2929C8.09763 16.6834 8.09763 17.3166 7.70711 17.7071L3.70711 21.7071C3.31658 22.0976 2.68342 22.0976 2.29289 21.7071C1.90237 21.3166 1.90237 20.6834 2.29289 20.2929L6.29289 16.2929C6.68342 15.9024 7.31658 15.9024 7.70711 16.2929Z" fill="url(#paint3_linear_16_7057)"/>
<defs>
<linearGradient id="paint0_linear_16_7057" x1="0.951343" y1="3.4375" x2="19.5773" y2="18.6317" gradientUnits="userSpaceOnUse">
<stop stop-color="#FF9951"/>
<stop offset="0.336538" stop-color="#C659FC"/>
<stop offset="0.870192" stop-color="#5386FA"/>
</linearGradient>
<linearGradient id="paint1_linear_16_7057" x1="0.951343" y1="3.4375" x2="19.5773" y2="18.6317" gradientUnits="userSpaceOnUse">
<stop stop-color="#FF9951"/>
<stop offset="0.336538" stop-color="#C659FC"/>
<stop offset="0.870192" stop-color="#5386FA"/>
</linearGradient>
<linearGradient id="paint2_linear_16_7057" x1="0.951343" y1="3.4375" x2="19.5773" y2="18.6317" gradientUnits="userSpaceOnUse">
<stop stop-color="#FF9951"/>
<stop offset="0.336538" stop-color="#C659FC"/>
<stop offset="0.870192" stop-color="#5386FA"/>
</linearGradient>
<linearGradient id="paint3_linear_16_7057" x1="0.951343" y1="3.4375" x2="19.5773" y2="18.6317" gradientUnits="userSpaceOnUse">
<stop stop-color="#FF9951"/>
<stop offset="0.336538" stop-color="#C659FC"/>
<stop offset="0.870192" stop-color="#5386FA"/>
</linearGradient>
</defs>
</svg>
