<svg width="24" height="24" viewBox="0 0 24 24" fill="none" xmlns="http://www.w3.org/2000/svg">
<path fill-rule="evenodd" clip-rule="evenodd" d="M12.3687 4.3883C12.1249 4.34257 11.8748 4.34257 11.6311 4.3883C11.3882 4.43386 11.1394 4.54817 10.3005 4.96764L7.10048 6.56764C6.07245 7.08165 5.77762 7.24366 5.57105 7.45457C5.36362 7.66636 5.20586 7.92161 5.1092 8.20186C5.01294 8.48094 4.99989 8.8171 4.99989 9.96646V13.3395C4.99989 14.3752 5.01072 14.6777 5.09139 14.9352C5.17238 15.1936 5.30502 15.433 5.48126 15.6386C5.65683 15.8435 5.90761 16.013 6.78589 16.5619L9.98589 18.5619C10.971 19.1776 11.2662 19.3464 11.5567 19.4124C11.8484 19.4787 12.1513 19.4787 12.4431 19.4124C12.7336 19.3464 13.0288 19.1776 14.0139 18.5619L17.2139 16.5619C18.0922 16.013 18.343 15.8435 18.5185 15.6386C18.6948 15.433 18.8274 15.1936 18.9084 14.9352C18.9891 14.6777 18.9999 14.3752 18.9999 13.3395V9.96646C18.9999 8.8171 18.9868 8.48094 18.8906 8.20186C18.7939 7.92161 18.6362 7.66636 18.4287 7.45457C18.2222 7.24366 17.9273 7.08166 16.8993 6.56764L13.6993 4.96764C12.8604 4.54817 12.6115 4.43386 12.3687 4.3883ZM11.2623 2.4226C11.7498 2.33114 12.25 2.33114 12.7375 2.4226C13.2907 2.52639 13.8039 2.78334 14.4836 3.12368C14.5198 3.14182 14.5565 3.16019 14.5937 3.17879L17.7937 4.77879C17.8398 4.80182 17.8853 4.82452 17.9301 4.84691C18.7602 5.26123 19.3859 5.57358 19.8576 6.05513C20.2724 6.47871 20.5879 6.98922 20.7813 7.54972C21.0011 8.18692 21.0006 8.88629 21 9.81399C20.9999 9.86414 20.9999 9.91496 20.9999 9.96646V13.3395C20.9999 13.3857 20.9999 13.4312 20.9999 13.4761C21.0005 14.314 21.0009 14.9461 20.8169 15.5332C20.6549 16.0501 20.3896 16.5287 20.0371 16.9401C19.6368 17.4072 19.1005 17.7419 18.3898 18.1856C18.3516 18.2093 18.313 18.2334 18.2739 18.2579L15.0739 20.2579C15.0297 20.2855 14.9861 20.3128 14.9432 20.3397C14.1486 20.8371 13.5496 21.212 12.8862 21.3627C12.3028 21.4953 11.697 21.4953 11.1135 21.3627C10.4502 21.212 9.85122 20.8371 9.05663 20.3397C9.01364 20.3128 8.97007 20.2855 8.9259 20.2579L5.7259 18.2579C5.68677 18.2334 5.64815 18.2093 5.61003 18.1856C4.89927 17.7419 4.36299 17.4072 3.96263 16.9401C3.61014 16.5287 3.34487 16.0501 3.18289 15.5332C2.99893 14.9461 2.99932 14.314 2.99983 13.4761C2.99986 13.4312 2.99989 13.3857 2.99989 13.3395V9.96646C2.99989 9.91496 2.99986 9.86414 2.99982 9.814C2.99919 8.8863 2.99872 8.18692 3.21851 7.54972C3.41184 6.98922 3.72735 6.47871 4.14222 6.05513C4.61386 5.57358 5.23961 5.26123 6.06965 4.84691C6.11451 4.82452 6.15998 4.80182 6.20605 4.77879L9.40605 3.17879C9.44325 3.16019 9.47994 3.14181 9.51617 3.12368C10.1959 2.78334 10.7091 2.52639 11.2623 2.4226Z" fill="url(#paint0_linear_16_7081)"/>
<path fill-rule="evenodd" clip-rule="evenodd" d="M4.10546 7.05269C4.35245 6.55871 4.95312 6.35849 5.4471 6.60547L8.4471 8.10547C8.94108 8.35246 9.14131 8.95314 8.89432 9.44712C8.64733 9.94109 8.04665 10.1413 7.55268 9.89433L4.55268 8.39433C4.0587 8.14734 3.85847 7.54667 4.10546 7.05269ZM19.8943 7.05269C20.1413 7.54667 19.9411 8.14734 19.4471 8.39433L16.4471 9.89433C15.9531 10.1413 15.3525 9.94109 15.1055 9.44712C14.8585 8.95314 15.0587 8.35246 15.5527 8.10547L18.5527 6.60547C19.0467 6.35849 19.6473 6.55871 19.8943 7.05269ZM11.9999 16.9999C12.5522 16.9999 12.9999 17.4476 12.9999 17.9999V19.9999C12.9999 20.5522 12.5522 20.9999 11.9999 20.9999C11.4476 20.9999 10.9999 20.5522 10.9999 19.9999V17.9999C10.9999 17.4476 11.4476 16.9999 11.9999 16.9999Z" fill="url(#paint1_linear_16_7081)"/>
<path fill-rule="evenodd" clip-rule="evenodd" d="M11.9999 8.3999C12.2581 8.3999 12.4874 8.56516 12.5691 8.81016L13.2242 10.7756L15.1896 11.4307C15.4346 11.5124 15.5999 11.7416 15.5999 11.9999C15.5999 12.2582 15.4346 12.4874 15.1896 12.5691L13.2242 13.2242L12.5691 15.1896C12.4874 15.4346 12.2581 15.5999 11.9999 15.5999C11.7416 15.5999 11.5123 15.4346 11.4307 15.1896L10.7755 13.2242L8.81015 12.5691C8.56515 12.4874 8.39989 12.2582 8.39989 11.9999C8.39989 11.7416 8.56515 11.5124 8.81015 11.4307L10.7755 10.7756L11.4307 8.81016C11.5123 8.56516 11.7416 8.3999 11.9999 8.3999Z" fill="url(#paint2_linear_16_7081)"/>
<defs>
<linearGradient id="paint0_linear_16_7081" x1="3.8152" y1="5.33965" x2="19.9486" y2="18.3278" gradientUnits="userSpaceOnUse">
<stop stop-color="#FF9951"/>
<stop offset="0.336538" stop-color="#C659FC"/>
<stop offset="0.870192" stop-color="#5386FA"/>
</linearGradient>
<linearGradient id="paint1_linear_16_7081" x1="3.8152" y1="5.33965" x2="19.9486" y2="18.3278" gradientUnits="userSpaceOnUse">
<stop stop-color="#FF9951"/>
<stop offset="0.336538" stop-color="#C659FC"/>
<stop offset="0.870192" stop-color="#5386FA"/>
</linearGradient>
<linearGradient id="paint2_linear_16_7081" x1="3.8152" y1="5.33965" x2="19.9486" y2="18.3278" gradientUnits="userSpaceOnUse">
<stop stop-color="#FF9951"/>
<stop offset="0.336538" stop-color="#C659FC"/>
<stop offset="0.870192" stop-color="#5386FA"/>
</linearGradient>
</defs>
</svg>
