<svg width="24" height="24" viewBox="0 0 24 24" fill="none" xmlns="http://www.w3.org/2000/svg">
    <g transform="translate(2.25 2.25)">
        <path d="M18 2.75C18 2.05964 17.4404 1.5 16.75 1.5H2.75C2.05964 1.5 1.5 2.05964 1.5 2.75V16.75C1.5 17.4404 2.05964 18 2.75 18H16.75C17.4404 18 18 17.4404 18 16.75V2.75ZM19.5 16.75C19.5 18.2688 18.2688 19.5 16.75 19.5H2.75C1.23122 19.5 0 18.2688 0 16.75V2.75C0 1.23122 1.23122 0 2.75 0H16.75C18.2688 0 19.5 1.23122 19.5 2.75V16.75Z" fill="#64748B"/>
    </g>
    <g transform="translate(8.25 2.25)">
        <path d="M0 18.75V0.75C0 0.335786 0.335786 0 0.75 0C1.16421 0 1.5 0.335786 1.5 0.75V18.75C1.5 19.1642 1.16421 19.5 0.75 19.5C0.335786 19.5 0 19.1642 0 18.75Z" fill="#64748B"/>
    </g>
</svg>
