<?xml version="1.0" standalone="no"?><!DOCTYPE svg PUBLIC "-//W3C//DTD SVG 1.1//EN" "http://www.w3.org/Graphics/SVG/1.1/DTD/svg11.dtd"><svg t="1731465967110" class="icon" viewBox="0 0 1024 1024" version="1.1" xmlns="http://www.w3.org/2000/svg" p-id="1541" xmlns:xlink="http://www.w3.org/1999/xlink" width="200" height="200"><path d="M112 166h-7q-21 3-35 18.5T56 222v562q3 20 18.5 34.5T112 833h388l56-167-119-179-103 123-72-71-5-5q-17-13-38-11.5T183 539l-71 71V222h259l18-56H112z m388 0l-18 56h407v379L654 327l-4-5q-18-16-41.5-14.5T570 328l-72 85 169 253-55 167h277l7-1q21-2 35-18t14-37V215q-3-21-18.5-35T889 166H500zM306 277q-34 0-58.5 24.5t-24.5 59q0 34.5 24.5 59T306 444q23 0 42.5-12t30.5-31l-45-68 14-44q-19-12-42-12z" fill="#E0E0E0" p-id="1542"></path></svg>
