<svg width="24" height="24" viewBox="0 0 24 24" fill="none" xmlns="http://www.w3.org/2000/svg">
    <mask id="mask0_2_3763" style="mask-type:alpha" maskUnits="userSpaceOnUse" x="0" y="0" width="24" height="24">
        <rect width="24" height="24" fill="#D9D9D9"/>
    </mask>
    <g mask="url(#mask0_2_3763)">
        <path d="M10.1484 16.15L6.69844 12.7C6.49844 12.5 6.39844 12.2667 6.39844 12C6.39844 11.7333 6.49844 11.5 6.69844 11.3L10.1484 7.85C10.3151 7.68333 10.4984 7.64167 10.6984 7.725C10.8984 7.80833 10.9984 7.96667 10.9984 8.2V15.8C10.9984 16.0333 10.8984 16.1917 10.6984 16.275C10.4984 16.3583 10.3151 16.3167 10.1484 16.15ZM12.9984 20V4C12.9984 3.71667 13.0943 3.47917 13.2859 3.2875C13.4776 3.09583 13.7151 3 13.9984 3C14.2818 3 14.5193 3.09583 14.7109 3.2875C14.9026 3.47917 14.9984 3.71667 14.9984 4V20C14.9984 20.2833 14.9026 20.5208 14.7109 20.7125C14.5193 20.9042 14.2818 21 13.9984 21C13.7151 21 13.4776 20.9042 13.2859 20.7125C13.0943 20.5208 12.9984 20.2833 12.9984 20Z" fill="black" fill-opacity="0.6"/>
    </g>
</svg>
